<svg xmlns="http://www.w3.org/2000/svg" width="12.781" height="12.781" viewBox="0 0 12.781 12.781">
  <path id="Union_23" data-name="Union 23" d="M8312.5,10585.781a1.5,1.5,0,0,1-1.5-1.5v-8.785a1.5,1.5,0,0,1,1.5-1.5h.6v-1h1v1h6.589v-1h1v1h.6a1.5,1.5,0,0,1,1.5,1.5v8.785a1.5,1.5,0,0,1-1.5,1.5Zm-.5-1.5a.5.5,0,0,0,.5.5h9.785a.5.5,0,0,0,.5-.5v-6.591H8312Zm0-8.785v1.2h10.783v-1.2a.5.5,0,0,0-.5-.5h-.6v1h-1v-1h-6.589v1h-1v-1h-.6A.5.5,0,0,0,8312,10575.5Zm7.415,8.183a1,1,0,0,1-1-1v-1.268a1,1,0,0,1,1-1h1.267a1,1,0,0,1,1,1v1.268a1,1,0,0,1-1,1Z" transform="translate(-8311 -10573)" fill="#7790a7"/>
</svg>
