<svg xmlns="http://www.w3.org/2000/svg" width="18.3" height="18.3" viewBox="0 0 18.3 18.3">
  <g id="icons_select" data-name="icons/select" transform="translate(0.32 1.084)">
    <g id="Group-18865-Copy" transform="translate(0.329)">
      <circle id="Ellipse_204" cx="8.5" cy="8.5" r="8.5" transform="translate(0.001 -0.434)" fill="none" stroke="#5cb366" stroke-width="1.3"/>
      <path id="Path" d="M6.2,10.934,3.138,7.851a.476.476,0,0,1,0-.671L3.8,6.51a.47.47,0,0,1,.667,0L6.536,8.586l4.422-4.447a.47.47,0,0,1,.667,0l.667.671a.476.476,0,0,1,0,.671L6.87,10.934a.47.47,0,0,1-.667,0Z" transform="translate(0.376 0.715)" fill="#5cb366"/>
    </g>
  </g>
</svg>
