<?xml version="1.0" standalone="no"?>
<!DOCTYPE svg PUBLIC "-//W3C//DTD SVG 1.1//EN" "http://www.w3.org/Graphics/SVG/1.1/DTD/svg11.dtd" >
<svg xmlns="http://www.w3.org/2000/svg">
<metadata>Generated by IcoMoon</metadata>
<defs>
<font id="monshaat-icons" horiz-adv-x="1024">
<font-face units-per-em="1024" ascent="960" descent="-64" />
<missing-glyph horiz-adv-x="1024" />
<glyph unicode="&#x20;" horiz-adv-x="512" d="" />
<glyph unicode="&#xe900;" glyph-name="close" d="M989.317 758.27l-309.986-309.986 309.986-310.327c18.286-20.734 29.448-48.13 29.448-78.133 0-65.378-52.999-118.377-118.377-118.377-29.89 0-57.192 11.078-78.025 29.352l0.135-0.116-310.782 310.441-309.645-310.441c-21.465-21.55-51.164-34.885-83.978-34.885-65.458 0-118.522 53.064-118.522 118.522 0 32.644 13.197 62.206 34.548 83.641l-0.004-0.004 311.123 310.327-311.123 309.986c-21.274 21.401-34.424 50.898-34.424 83.467 0 65.392 53.010 118.402 118.402 118.402 32.823 0 62.527-13.356 83.973-34.93l0.006-0.006 309.645-310.1 310.668 310.1c20.753 18.411 48.226 29.656 78.325 29.656 65.315 0 118.263-52.948 118.263-118.263 0-30.1-11.245-57.573-29.762-78.448l0.107 0.123z" />
<glyph unicode="&#xe901;" glyph-name="Iconarrow-back-right" d="M637.013 439.723l-381.312-381.013c-12.99-13.028-21.023-31.005-21.023-50.859 0-39.781 32.249-72.031 72.031-72.031 19.928 0 37.966 8.092 51.006 21.17l0.002 0.002 432 431.531c12.951 13 20.958 30.934 20.958 50.737 0 18.739-7.17 35.804-18.915 48.601l0.048-0.053-433.792 434.901c-13.042 13.080-31.080 21.172-51.008 21.172-39.781 0-72.031-32.249-72.031-72.031 0-19.854 8.032-37.831 21.024-50.86l-0.002 0.002z" />
<glyph unicode="&#xe902;" glyph-name="small-left-arrow" horiz-adv-x="1233" d="M1163.307 544.611h-822.818l259.257 259.98c12.12 12.304 19.604 29.205 19.604 47.853s-7.484 35.549-19.612 47.862l0.008-0.009-40.345 40.345c-12.207 12.185-29.060 19.72-47.672 19.72s-35.465-7.535-47.673-19.721l0.001 0.001-444.336-444.879c-12.109-12.275-19.588-29.146-19.588-47.763s7.479-35.487 19.595-47.77l-0.007 0.008 444.517-444.517c12.207-12.185 29.060-19.72 47.672-19.72s35.465 7.535 47.673 19.721l-0.001-0.001 40.164 40.707c12.181 12.097 19.72 28.854 19.72 47.372 0 0.074 0 0.147 0 0.221v-0.011c0 0.042 0 0.091 0 0.141 0 18.255-7.552 34.747-19.703 46.52l-0.017 0.016-262.151 261.066h826.799c37.695 0.804 67.992 31.355 68.387 69.073v57.208c-1.105 37.006-31.368 66.584-68.539 66.584-0.328 0-0.656-0.002-0.983-0.007l0.050 0.001z" />
<glyph unicode="&#xe903;" glyph-name="small-right-arrow" horiz-adv-x="1233" d="M69.292 544.792h822.999l-259.076 259.437c-12.163 12.285-19.677 29.191-19.677 47.853s7.515 35.568 19.683 47.859l-0.005-0.006 40.345 40.345c12.207 12.185 29.060 19.72 47.672 19.72s35.465-7.535 47.673-19.721l444.516-444.516c12.109-12.275 19.588-29.146 19.588-47.763s-7.479-35.487-19.595-47.77l0.007 0.008-444.879-444.517c-12.207-12.185-29.060-19.72-47.672-19.72s-35.465 7.535-47.673 19.721l0.001-0.001-39.983 40.707c-12.181 12.097-19.72 28.854-19.72 47.372 0 0.074 0 0.147 0 0.221v-0.011c0.012 18.241 7.562 34.716 19.703 46.48l0.017 0.016 262.332 261.428h-827.16c-37.695 0.804-67.992 31.355-68.387 69.073v57.208c1.106 37.005 31.369 66.582 68.539 66.582 0.265 0 0.529-0.001 0.793-0.004h-0.040z" />
<glyph unicode="&#xe904;" glyph-name="add" d="M968.42 519.43h-384.469v384.991c-6.414 32.023-34.306 55.812-67.754 55.812-1.477 0-2.943-0.046-4.396-0.138l0.199 0.010c-1.106 0.063-2.4 0.099-3.702 0.099-33.401 0-61.261-23.721-67.653-55.236l-0.075-0.443v-385.095h-384.991c-31.958-6.467-55.679-34.327-55.679-67.728 0-1.302 0.036-2.596 0.107-3.88l-0.008 0.178c-0.078-1.23-0.123-2.667-0.123-4.115 0-33.409 23.733-61.275 55.259-67.657l0.443-0.075h384.991v-384.574c6.467-31.958 34.327-55.679 67.728-55.679 1.302 0 2.596 0.036 3.88 0.107l-0.178-0.008c1.261-0.082 2.734-0.129 4.218-0.129 33.411 0 61.278 23.736 67.659 55.266l0.075 0.443v384.574h384.469c31.958 6.467 55.679 34.327 55.679 67.728 0 1.302-0.036 2.596-0.107 3.88l0.008-0.178c0.078 1.23 0.123 2.667 0.123 4.115 0 33.409-23.733 61.275-55.259 67.657l-0.443 0.075z" />
<glyph unicode="&#xe905;" glyph-name="calendar1" d="M903.998 879.962h-48.044v80.038h-79.928v-80.038h-528.051v80.038h-79.928v-80.038h-47.935c-66.297 0-120.049-53.713-120.111-119.996v-703.965c0-66.335 53.775-120.111 120.111-120.111v0h783.997c66.335 0 120.111 53.775 120.111 120.111v0 703.959c-0.062 66.289-53.814 120.002-120.111 120.002-0.038 0-0.077 0-0.115 0h0.006zM943.962 56.002c-0.062-22.047-17.918-39.902-39.958-39.964h-783.893c-22.047 0.062-39.902 17.918-39.964 39.958v528.057h863.816zM943.962 663.981h-863.925v95.98c0 22.132 17.941 40.073 40.073 40.073v0h48.044v-80.256h80.038v80.256h527.833v-80.256h80.038v80.256h48.044c22.047-0.062 39.902-17.918 39.964-39.958v-0.006zM676.224 304.85h218.383v-218.383h-218.383v218.383z" />
<glyph unicode="&#xe906;" glyph-name="checked" horiz-adv-x="1417" d="M1391.978 935.726c-15.658 14.993-36.939 24.223-60.376 24.223s-44.719-9.23-60.408-24.253l0.032 0.030-793.782-793.782-331.644 331.799c-15.658 14.993-36.939 24.223-60.376 24.223s-44.719-9.23-60.408-24.253l0.032 0.030c-15.461-15.447-25.025-36.795-25.025-60.376s9.564-44.929 25.024-60.376l392.099-392.099c15.447-15.461 36.795-25.025 60.376-25.025s44.929 9.564 60.376 25.024l854.236 854.236c15.461 15.447 25.025 36.795 25.025 60.376s-9.564 44.929-25.024 60.376l-0.001 0.001z" />
<glyph unicode="&#xe907;" glyph-name="play-button" d="M512.005 841.28c-0.003 0-0.006 0-0.009 0-164.752 0-298.309-133.558-298.309-298.309s133.558-298.309 298.309-298.309c164.752 0 298.309 133.558 298.309 298.309v0c0 164.748-133.552 298.304-298.299 298.309v0zM615.101 527.158l-149.112-93.219c-2.797-1.766-6.201-2.814-9.849-2.814-10.291 0-18.634 8.338-18.644 18.626v186.448c0.009 10.29 8.353 18.627 18.644 18.627 3.648 0 7.052-1.048 9.926-2.859l-0.077 0.045 149.112-93.219c5.3-3.349 8.768-9.176 8.768-15.813s-3.468-12.465-8.692-15.768l-0.077-0.045z" />
<glyph unicode="&#xe908;" glyph-name="graduate-diploma" horiz-adv-x="819" d="M169.416 717.903h256.074c13.265 0 24.018 10.753 24.018 24.018s-10.753 24.018-24.018 24.018h-256.074c-13.265 0-24.018-10.753-24.018-24.018s10.753-24.018 24.018-24.018v0zM169.416 599.393h348.984c13.265 0 24.018 10.753 24.018 24.018s-10.753 24.018-24.018 24.018v0h-348.984c-13.265 0-24.018-10.753-24.018-24.018s10.753-24.018 24.018-24.018v0zM72.018 887.982h543.779v-376.717c9.275-2.861 17.316-6.459 24.81-10.885l-0.534 0.292c13.057 8.143 28.806 13.167 45.691 13.679l0.139 0.003h1.913v373.628c0 39.775-32.244 72.018-72.018 72.018v0h-543.779c-39.775 0-72.018-32.244-72.018-72.018v0-802.648c0-39.775 32.244-72.018 72.018-72.018v0h436.156v72.018h-436.156zM798.749 333.389c-5.177 3.858-9.455 8.605-12.679 14.051l-0.121 0.221c-0.216 1.711-0.339 3.69-0.339 5.698 0 5.109 0.796 10.032 2.272 14.651l-0.094-0.341c2.716 4.686 4.318 10.31 4.318 16.309 0 18.201-14.755 32.956-32.956 32.956-2.415 0-4.769-0.26-7.037-0.753l0.217 0.040c-1.491-0.321-3.204-0.504-4.959-0.504-12.569 0-22.941 9.41-24.454 21.57l-0.012 0.12c-5.002 11.329-10.593 24.202-22.805 28.175-2.106 0.701-4.53 1.106-7.049 1.106-0.108 0-0.216-0.001-0.324-0.002h0.016c-10.226-1.117-19.422-4.783-27.169-10.342l0.171 0.117c-4.741-4.987-11.424-8.088-18.832-8.088s-14.091 3.102-18.822 8.077l-0.010 0.011c-7.575 5.443-16.772 9.108-26.743 10.203l-0.255 0.023c-0.091 0.001-0.199 0.002-0.307 0.002-2.519 0-4.943-0.404-7.212-1.152l0.163 0.046c-12.211-3.972-17.876-16.846-22.805-28.175-1.525-12.28-11.897-21.69-24.466-21.69-1.756 0-3.468 0.184-5.12 0.533l0.161-0.028c-2.050 0.453-4.404 0.713-6.819 0.713-18.201 0-32.956-14.755-32.956-32.956 0-5.998 1.603-11.622 4.403-16.467l-0.085 0.159c1.994-3.473 3.171-7.635 3.171-12.073 0-9.75-5.68-18.174-13.911-22.144l-0.147-0.064c-11.84-5.397-19.922-17.13-19.922-30.749s8.082-25.352 19.711-30.663l0.211-0.086c8.378-4.033 14.058-12.457 14.058-22.208 0-4.437-1.176-8.6-3.234-12.193l0.063 0.12c-2.716-4.686-4.318-10.31-4.318-16.309 0-18.201 14.755-32.956 32.956-32.956 2.415 0 4.769 0.26 7.037 0.753l-0.217-0.040c1.491 0.321 3.204 0.504 4.959 0.504 12.569 0 22.941-9.41 24.454-21.57l0.012-0.12c5.002-11.329 10.593-24.202 22.805-28.175 2.099-0.701 4.516-1.106 7.027-1.106 0.116 0 0.232 0.001 0.347 0.003h-0.017c10.226 1.117 19.422 4.783 27.169 10.342l-0.171-0.117c4.741 4.987 11.424 8.088 18.832 8.088s14.091-3.102 18.822-8.077l0.010-0.011c7.575-5.443 16.772-9.108 26.743-10.203l0.255-0.023c0.088-0.001 0.192-0.002 0.296-0.002 2.523 0 4.951 0.404 7.223 1.152l-0.163-0.046c12.211 3.972 17.876 16.846 22.805 28.175 1.525 12.28 11.897 21.69 24.466 21.69 1.756 0 3.468-0.184 5.12-0.533l-0.161 0.028c2.050-0.453 4.404-0.713 6.819-0.713 18.201 0 32.956 14.755 32.956 32.956 0 5.998-1.603 11.622-4.403 16.467l0.085-0.159c-1.994 3.473-3.171 7.635-3.171 12.073 0 9.75 5.68 18.174 13.911 22.144l0.147 0.064c11.84 5.397 19.922 17.13 19.922 30.749s-8.082 25.352-19.711 30.663l-0.211 0.086zM647.356 240.257c-34.452 0-62.382 27.929-62.382 62.382s27.929 62.382 62.382 62.382c34.452 0 62.382-27.929 62.382-62.382v0c0-34.452-27.929-62.382-62.382-62.382v0zM705.839 122.262c-3.775-1.26-8.121-1.986-12.638-1.986-0.031 0-0.063 0-0.094 0h0.005c-13.638 1.001-26.027 5.617-36.429 12.883l0.236-0.156c-2.795 1.618-7.356 4.12-9.637 5.223-2.575-1.103-6.915-3.605-9.637-5.223-10.166-7.109-22.556-11.725-35.954-12.712l-0.239-0.014c-0.023 0-0.050 0-0.077 0-4.52 0-8.87 0.727-12.941 2.070l0.292-0.083c-10.839 3.82-19.616 11.215-25.113 20.741l-0.12 0.225v-197.37c0-0.036-0.001-0.079-0.001-0.121 0-5.444 4.413-9.857 9.857-9.857 2.588 0 4.943 0.997 6.701 2.628l-0.006-0.006 67.31 61.867 67.31-61.867c1.752-1.625 4.107-2.622 6.695-2.622 5.444 0 9.857 4.413 9.857 9.857 0 0.043 0 0.085-0.001 0.128v-0.006 197.444c-5.679-9.769-14.497-17.182-25.050-20.937l-0.329-0.102z" />
<glyph unicode="&#xe909;" glyph-name="long-arrow-top" horiz-adv-x="1210" d="M701.706-89.122l-0.451-1.868v809.719l259.881-254.599c12.394-11.946 29.281-19.305 47.886-19.305s35.492 7.359 47.907 19.325l-0.021-0.020 40.383 39.61c12.152 11.881 19.687 28.44 19.687 46.759s-7.535 34.878-19.675 46.747l-0.012 0.012-444.47 436.419c-12.364 11.934-29.218 19.287-47.79 19.287s-35.426-7.353-47.81-19.306l0.020 0.019-444.405-436.355c-12.136-11.888-19.659-28.445-19.659-46.759s7.523-34.871 19.648-46.748l0.011-0.011 40.383-39.61c12.159-11.948 28.844-19.323 47.251-19.323 0.144 0 0.288 0 0.432 0.001h-0.022c0.107-0.001 0.233-0.001 0.359-0.001 18.139 0 34.553 7.388 46.397 19.319l0.004 0.004 261.362 257.626v-811.523c1.182-37.302 31.695-67.094 69.171-67.112h57.131c36.802 0.793 66.339 30.782 66.403 67.685v0.006z" />
<glyph unicode="&#xe90a;" glyph-name="writing" horiz-adv-x="918" d="M651.77 520.018c0 0 0 0 0 0.001 0 22.102-17.917 40.018-40.018 40.018-0.078 0-0.155 0-0.233-0.001h-411.942c-0.512 0.023-1.112 0.037-1.715 0.037-22.102 0-40.018-17.917-40.018-40.018s17.917-40.018 40.018-40.018c0.603 0 1.203 0.013 1.8 0.040l-0.085-0.003h411.954c0.066 0 0.143-0.001 0.221-0.001 22.076 0 39.977 17.875 40.018 39.941v0.004zM199.577 400.037c-0.512 0.023-1.112 0.037-1.715 0.037-22.102 0-40.018-17.917-40.018-40.018s17.917-40.018 40.018-40.018c0.603 0 1.203 0.013 1.8 0.040l-0.085-0.003h250.115c0.512-0.023 1.112-0.037 1.715-0.037 22.102 0 40.018 17.917 40.018 40.018s-17.917 40.018-40.018 40.018c-0.603 0-1.203-0.013-1.8-0.040l0.085 0.003zM293.812 16.037h-133.811c-44.129 0.084-79.88 35.834-79.963 79.955v704.008c0.084 44.129 35.834 79.88 79.955 79.963h491.778c44.129-0.084 79.88-35.834 79.963-79.955v-246.003c0.944-21.351 18.483-38.303 39.982-38.303s39.037 16.952 39.979 38.218l0.003 0.085v245.995c-0.084 88.306-71.626 159.874-159.914 160h-491.782c-88.332-0.084-159.916-71.668-160-159.992v-704.008c0.084-88.332 71.668-159.916 159.992-160h133.819c21.351 0.944 38.303 18.483 38.303 39.982s-16.952 39.037-38.218 39.979l-0.085 0.003zM882.685 380.91c-21.727 21.664-51.708 35.060-84.818 35.060s-63.092-13.395-84.821-35.063l0.003 0.003-219.586-219.145c-4.531-4.531-7.981-10.142-9.929-16.415l-0.076-0.284-47.816-157.425c-1.087-3.467-1.714-7.453-1.714-11.585 0-22.102 17.917-40.018 40.018-40.018 3.777 0 7.432 0.523 10.897 1.501l-0.282-0.068 161.471 44.726c6.911 1.946 12.838 5.493 17.582 10.226l219.144 218.703c21.686 21.73 35.096 51.727 35.096 84.855 0 33.165-13.44 63.191-35.17 84.929v0zM614.474 56.497l-80.92-22.51 23.761 78.271 148.156 147.862 56.57-56.57zM826.115 267.77l-7.724-7.724-56.57 56.57 7.724 7.356c7.148 6.752 16.816 10.902 27.454 10.902 22.102 0 40.018-17.917 40.018-40.018 0-10.637-4.15-20.305-10.92-27.473l0.018 0.019zM611.531 720.037h-411.954c-0.512 0.023-1.112 0.037-1.715 0.037-22.102 0-40.018-17.917-40.018-40.018s17.917-40.018 40.018-40.018c0.603 0 1.203 0.013 1.8 0.040l-0.085-0.003h411.954c21.351 0.944 38.303 18.483 38.303 39.982s-16.952 39.037-38.218 39.979l-0.085 0.003z" />
<glyph unicode="&#xe90b;" glyph-name="time-control-tool" horiz-adv-x="914" d="M810.806 840.928h59.896c23.728 0 42.963 19.235 42.963 42.963v33.146c0 0 0 0 0 0 0 23.696-19.184 42.912-42.868 42.963h-827.834c-23.728 0-42.963-19.235-42.963-42.963v0-33.146c0-23.728 19.235-42.963 42.963-42.963v0h59.896c-0.002-0.544-0.003-1.189-0.003-1.833 0-151.956 63.78-289.015 166.029-385.869l0.242-0.228c-102.646-97.472-166.503-234.94-166.503-387.323 0-4.362 0.052-8.712 0.156-13.049l-0.012 0.644h-59.806c-23.728 0-42.963-19.235-42.963-42.963v0-31.434c0-23.728 19.235-42.963 42.963-42.963v0h827.829c23.728 0 42.963 19.235 42.963 42.963v0 31.434c0 23.728-19.235 42.963-42.963 42.963v0h-59.806c0.088 3.623 0.139 7.891 0.139 12.171 0 152.472-63.889 290.022-166.356 387.34l-0.232 0.218c102.492 97.081 166.271 234.14 166.271 386.096 0 0.644-0.001 1.288-0.003 1.932v-0.099zM531.59 417.061l16.032-8.196c111.763-70.888 184.869-193.955 184.869-334.096 0-7.563-0.213-15.075-0.633-22.533l0.047 1.034h-550.325c-0.37 6.394-0.581 13.874-0.581 21.402 0 140.168 73.1 263.262 183.258 333.239l1.606 0.953 16.032 8.106c13.622 6.775 22.818 20.598 22.818 36.568s-9.196 29.793-22.581 36.462l-0.236 0.107-16.032 7.656c-111.424 70.492-184.333 193.063-184.333 332.663 0 3.693 0.051 7.374 0.152 11.042l-0.012-0.54h550.415c0.089-3.125 0.14-6.803 0.14-10.492 0-139.629-72.906-262.23-182.727-331.812l-1.606-0.95-16.032-7.746c-13.531-6.781-22.657-20.541-22.657-36.433s9.126-29.652 22.423-36.327l0.234-0.106zM282.458 93.712h372.527c-12.904 92.357-91.373 162.668-186.264 162.668s-173.36-70.311-186.15-161.677l-0.114-0.991zM596.17 583.6h-279.215c34.198-38.88 84.053-63.284 139.608-63.284s105.41 24.404 139.43 63.077l0.178 0.207z" />
<glyph unicode="&#xe90c;" glyph-name="comment" horiz-adv-x="1030" d="M1027.11 493.909c-29.502 262.43-250.174 464.548-518.054 464.548-43.632 0-86.012-5.362-126.516-15.463l3.588 0.758c-233.823-60.487-444.944-329.684-371.162-581.933 19.787-67.601 45.287-133.53 71.449-209.916-57.105-160.508-57.105-160.508 4.198-216.097 109.856 11.662 211.782 45.054 303.523 26.939 35.019-8.491 75.224-13.36 116.566-13.36 130.448 0 249.572 48.482 340.336 128.411l-0.569-0.491c109.532 86.171 179.227 218.719 179.227 367.545 0 17.281-0.94 34.344-2.771 51.138l0.184-2.078zM902.482 268.755c-103.481-198.953-301.268-276.661-545.82-213.531l-237.943-41.167 61.225 160.547c-62.159 76.238-99.814 174.594-99.814 281.746 0 33.999 3.791 67.112 10.974 98.94l-0.568-2.993c19.4 90.76 68.592 167.762 136.648 222.15l0.769 0.594c75.889 64.713 175.104 104.083 283.515 104.083 110.963 0 212.292-41.246 289.493-109.242l-0.483 0.417c89.769-76.237 146.354-189.193 146.354-315.364 0-67.908-16.392-131.988-45.434-188.499l1.083 2.32zM276.195 607.886h465.741v-68.495h-465.741v68.495zM271.18 482.442h465.741v-68.495h-465.741v68.495zM271.18 356.998h465.741v-68.495h-465.741v68.495z" />
<glyph unicode="&#xe90d;" glyph-name="back1" horiz-adv-x="1392" d="M1392 792v-320c0-96-72-168-168-168h-976l208-208-88-96-368 360 368 360 96-96-216-200h1016v416h-432v120h384c96 0 176-72 176-168z" />
<glyph unicode="&#xe90e;" glyph-name="dropdown-arrrow" horiz-adv-x="1768" d="M1727.572 721.675c23.571 24.953 38.060 58.702 38.060 95.836 0 77.148-62.541 139.688-139.688 139.688-37.133 0-70.883-14.489-95.903-38.123l0.067 0.063-646.177-646.177-646.177 646.177c-25.53 27.028-61.614 43.853-101.628 43.853-77.148 0-139.688-62.541-139.688-139.688 0-40.014 16.825-76.099 43.785-101.566l0.067-0.063 744.624-744.624c25.274-25.253 60.179-40.871 98.732-40.871s73.458 15.618 98.733 40.872l-0.001-0.001z" />
<glyph unicode="&#xe90f;" glyph-name="notifications-none" horiz-adv-x="870" d="M435.247-64.082c56.475 0.185 102.206 45.917 102.392 102.374v0.018h-204.457c0.184-56.36 45.73-102.022 102.029-102.392h0.035zM768.102 243.175v281.578c0.002 0.403 0.003 0.879 0.003 1.355 0 155.911-108.285 286.53-253.75 320.753l-2.232 0.443v35.903c0 42.412-34.382 76.794-76.794 76.794s-76.794-34.382-76.794-76.794v0-35.821c-147.861-34.543-256.31-165.242-256.31-321.27 0-0.479 0.001-0.958 0.003-1.436v0.074-281.578l-102.228-102.392v-51.196h870.412v51.196zM665.71 191.98h-460.927v332.773c0 127.259 103.164 230.422 230.422 230.422s230.422-103.164 230.422-230.422v0z" />
<glyph unicode="&#xe910;" glyph-name="sheet" d="M64 64v768c0.058 35.323 28.677 63.942 63.994 64h640.006c35.335-0.029 63.971-28.665 64-63.997v-376.272l64 63.949v312.32c0 70.692-57.308 128-128 128v0h-640c-70.692 0-128-57.308-128-128v0-768c0-70.692 57.308-128 128-128v0h352v64h-352c-35.323 0.058-63.942 28.677-64 63.994v0.006zM704 768h-512v-64h512zM704 640h-512v-64h512zM704 512h-512v-64h512zM192 320h256v64h-256zM1005.261 384l-45.261 45.261c-11.574 11.582-27.568 18.747-45.235 18.747s-33.661-7.164-45.235-18.746l-274.74-274.74c-21.427-21.441-38.613-47.124-50.191-75.679l-0.549-1.53-32.051-141.312 141.261 32c29.9 17.275 55.126 34.042 79.264 52.18l-2.003-1.441 274.739 274.739c11.598 11.577 18.772 27.581 18.772 45.261s-7.175 33.684-18.771 45.26l-0.001 0.001zM707.942 41.421c-9.124-7.187-19.399-14.331-30.090-20.863l-1.398-0.794-82.893 82.893c7.76 10.855 15.572 20.373 23.959 29.347l-0.151-0.163 206.848 206.848 90.522-90.368z" />
<glyph unicode="&#xe911;" glyph-name="clock-circular-outline" d="M512 960c-282.77 0-512-229.23-512-512s229.23-512 512-512c282.77 0 512 229.23 512 512v0c-0.349 282.629-229.37 511.65-511.966 512h-0.034zM512 44.954c-222.596 0-403.046 180.45-403.046 403.046s180.45 403.046 403.046 403.046c222.596 0 403.046-180.45 403.046-403.046v0c-0.291-222.479-180.567-402.755-403.018-403.046h-0.028zM791.757 424.141h-274.944v330.547c0 27.825-22.556 50.381-50.381 50.381s-50.381-22.556-50.381-50.381v0-380.928c0-27.825 22.556-50.381 50.381-50.381h325.325c27.825 0 50.381 22.556 50.381 50.381s-22.556 50.381-50.381 50.381v0z" />
<glyph unicode="&#xe912;" glyph-name="facebook" d="M582.4 600.768v130.624c0 36.088 29.256 65.344 65.344 65.344h65.344v163.264h-130.688c-0.019 0-0.042 0-0.064 0-108.195 0-195.904-87.709-195.904-195.904 0-0.022 0-0.045 0-0.067v0.003-163.264h-130.432v-163.264h130.624v-522.496h195.776v522.496h130.624l65.344 163.264z" />
<glyph unicode="&#xe913;" glyph-name="instgram" d="M1020.92 658.884c-0.935 44.879-9.59 87.46-24.683 126.854l0.867-2.576c-13.579 35.486-33.667 65.735-59.023 90.641l-0.037 0.036c-24.931 25.469-55.181 45.625-88.962 58.682l-1.715 0.583c-36.819 14.229-79.401 22.883-123.883 23.809l-0.396 0.007c-54.612 2.464-72.063 3.080-211.123 3.080s-156.443-0.616-210.85-3.080c-44.946-0.91-87.601-9.566-127.060-24.683l2.576 0.867c-35.486-13.579-65.735-33.667-90.641-59.023l-0.036-0.037c-25.392-24.942-45.481-55.191-58.479-88.96l-0.581-1.717c-14.25-36.883-22.907-79.539-23.809-124.099l-0.006-0.386c-2.464-54.406-3.080-71.789-3.080-210.85s0.616-156.512 3.080-211.123c0.932-44.878 9.587-87.46 24.683-126.854l-0.867 2.575c13.576-35.487 33.665-65.736 59.022-90.64l0.037-0.037c24.941-25.394 55.19-45.483 88.961-58.479l1.716-0.581c36.819-14.23 79.401-22.885 123.884-23.809l0.395-0.006c54.748-2.464 72.063-3.080 211.123-3.080s156.512 0.616 211.123 3.080c44.878 0.931 87.46 9.586 126.852 24.682l-2.574-0.867c68.977 27.182 122.554 80.76 149.119 147.964l0.618 1.773c14.229 36.819 22.883 79.401 23.809 123.883l0.007 0.396c2.464 54.748 3.080 72.063 3.080 211.123s-0.684 156.443-3.148 210.85zM928.738 241.428c-0.429-34.243-6.867-66.854-18.305-97.004l0.648 1.947c-17.601-44.791-52.388-79.577-96.029-96.779l-1.15-0.399c-28.204-10.789-60.815-17.228-94.874-17.655l-0.183-0.002c-53.996-2.464-70.146-3.011-206.88-3.011s-152.885 0.547-206.88 3.011c-34.243 0.432-66.853 6.87-97.005 18.305l1.948-0.648c-23.080 8.676-42.738 21.733-58.818 38.286l-0.037 0.038c-16.592 16.115-29.65 35.774-37.962 57.763l-0.362 1.092c-10.768 28.208-17.183 60.823-17.586 94.883l-0.002 0.174c-2.464 53.996-3.011 70.146-3.011 206.88s0.547 152.885 3.011 206.88c0.433 34.243 6.871 66.853 18.305 97.005l-0.649-1.948c8.676 23.080 21.733 42.738 38.286 58.818l0.038 0.037c16.113 16.596 35.772 29.655 57.764 37.962l1.091 0.362c28.204 10.789 60.815 17.228 94.874 17.655l0.183 0.002c53.996 2.464 70.146 3.011 206.88 3.011v0c136.871 0 152.885-0.547 206.88-3.011 34.243-0.43 66.854-6.869 97.005-18.305l-1.948 0.649c23.079-8.678 42.737-21.735 58.818-38.286l0.037-0.038c16.596-16.113 29.655-35.772 37.962-57.764l0.362-1.091c10.793-28.204 17.232-60.815 17.655-94.876l0.002-0.181c2.464-53.996 3.011-70.146 3.011-206.88s-0.616-153.227-3.080-206.88zM511.966 710.826c-145.212 0-262.929-117.717-262.929-262.929s117.717-262.929 262.929-262.929c145.212 0 262.929 117.717 262.929 262.929v0c0 145.212-117.717 262.929-262.929 262.929v0zM511.966 277.219c-94.263 0-170.678 76.415-170.678 170.678s76.415 170.678 170.678 170.678c94.263 0 170.678-76.415 170.678-170.678v0c0-94.263-76.415-170.678-170.678-170.678v0zM846.752 721.229c0-34.016-27.576-61.592-61.592-61.592s-61.592 27.576-61.592 61.592c0 34.016 27.576 61.592 61.592 61.592v0c34.016 0 61.592-27.576 61.592-61.592v0z" />
<glyph unicode="&#xe914;" glyph-name="linked-in" horiz-adv-x="1071" d="M13.268 627.249h230.219v-691.249h-230.219v691.249zM998.909 564.128c-45.386 48.872-109.995 79.353-181.724 79.353-3.542 0-7.066-0.074-10.572-0.221l0.501 0.017c-0.937 0.011-2.043 0.018-3.151 0.018-27.333 0-53.739-3.966-78.676-11.353l1.956 0.497c-23.228-6.68-43.46-17.080-61.118-30.661l0.427 0.315c-26.643-20.011-48.838-44.3-65.96-72.051l-0.643-1.12v98.525h-229.365l0.723-33.498q0.723-33.498 0.723-206.442t-1.445-451.572h229.497v385.757c-0.065 1.747-0.102 3.799-0.102 5.86 0 18.080 2.848 35.495 8.12 51.82l-0.333-1.192c9.87 23.941 24.984 43.991 43.996 59.424l0.275 0.216c19.014 15.067 43.351 24.17 69.813 24.17 1.343 0 2.68-0.023 4.011-0.070l-0.193 0.005c2.184 0.171 4.728 0.269 7.295 0.269 33.264 0 62.706-16.365 80.714-41.482l0.203-0.298c17.94-29.555 28.558-65.281 28.558-103.486 0-3.962-0.114-7.897-0.339-11.803l0.025 0.54v-369.73h229.497v396.201c0.533 7.052 0.837 15.275 0.837 23.569 0 79.22-27.739 151.962-74.034 209.042l0.485-0.618zM129.724 960c-1.691 0.078-3.673 0.122-5.665 0.122-33.966 0-64.921-12.891-88.24-34.047l0.11 0.098c-22.154-20.575-35.971-49.864-35.971-82.38 0-1.081 0.015-2.158 0.046-3.232l-0.004 0.158c-0.028-0.939-0.043-2.044-0.043-3.152 0-32.273 13.377-61.422 34.888-82.204l0.033-0.032c22.489-21.23 52.899-34.28 86.357-34.28 1.969 0 3.928 0.045 5.875 0.135l-0.276-0.010h1.379c1.794-0.088 3.896-0.138 6.009-0.138 34.146 0 65.249 13.028 88.61 34.384l-0.101-0.091c21.74 20.222 35.296 48.99 35.296 80.923 0 1.57-0.033 3.133-0.098 4.687l0.007-0.222c0.007 0.482 0.011 1.051 0.011 1.622 0 32.881-13.643 62.576-35.577 83.733l-0.035 0.034c-22.689 21.087-53.201 34.028-86.736 34.028-2.067 0-4.123-0.049-6.166-0.146l0.289 0.011z" />
<glyph unicode="&#xe915;" glyph-name="twitter1" d="M1024 754.070c-64.414-2.969-63.008-2.727-70.289-3.336l38.148 108.945s-119.078-43.805-149.266-51.641c-79.281 71.258-197.125 74.406-281.375 22.625-68.992-42.414-106.023-115.25-93.672-200.383-134.273 18.633-247.406 82.281-336.727 189.578l-28.25 33.93-21.109-38.766c-26.68-48.984-35.539-104.992-24.953-157.703 4.344-21.625 11.727-42.25 21.953-61.563l-24.234 9.391-2.875-40.492c-2.914-41.133 10.781-89.148 36.641-128.43 7.281-11.063 16.656-23.211 28.539-35.195l-12.523 1.922 15.281-46.398c20.086-60.961 61.805-108.125 115.945-134.344-54.070-22.945-97.75-37.586-169.547-61.203l-65.688-21.594 60.672-33.172c23.133-12.648 104.875-54.891 185.641-67.563 179.531-28.156 381.664-5.227 517.742 117.328 114.617 103.227 152.227 250.063 144.414 402.867-1.18 23.133 5.156 45.211 17.844 62.156 25.414 33.93 97.531 132.813 97.688 133.039zM878.336 656.969c-21.070-28.133-31.625-64.063-29.734-101.156 7.883-154.133-34.055-273.664-124.656-355.258-105.836-95.32-276.547-132.734-468.344-102.648-34.734 5.445-70.633 17.641-100.344 29.82 60.195 20.711 106.68 39.172 181.75 74.703l104.797 49.602-115.703 7.406c-55.422 3.547-101.57 30.406-129.938 74.016 15.063 0.875 29.586 3.313 44.047 7.344l110.352 30.734-111.273 27.25c-54.070 13.242-84.891 45.594-101.227 70.406-10.727 16.305-17.734 33.008-21.938 48.406 11.156-2.992 24.164-5.125 45.141-7.203l102.992-10.188-81.602 63.656c-58.797 45.859-82.359 114.758-65.086 180.992 183.5-190.328 398.953-176.023 420.641-181.055-4.773 46.367-4.898 46.477-6.148 50.891-27.773 98.18 33.094 148.031 60.547 164.906 57.344 35.242 148.367 40.555 211.414-17.508 13.617-12.531 32.031-17.461 49.266-13.18 15.469 3.844 28.164 7.914 40.594 12.344l-25.875-73.891 33.031-0.023c-6.234-8.359-13.711-18.367-22.703-30.367z" />
<glyph unicode="&#xe916;" glyph-name="youtube-2" d="M500.736 89.941h-0.244c-6.777-0.062-14.785-0.098-22.801-0.098-123.517 0-245.063 8.436-364.095 24.763l13.819-1.552c-53.148 14.719-94.169 55.707-108.675 107.748l-0.259 1.089c-11.883 61.691-18.68 132.642-18.68 205.18 0 8.354 0.090 16.687 0.27 24.997l-0.021-1.24c-0.157 7.102-0.246 15.472-0.246 23.864 0 73.112 6.779 144.641 19.742 213.993l-1.113-7.164c15.056 53.174 55.851 94.291 107.719 109.53l1.118 0.282h0.39c105.411 14.303 227.246 22.468 350.989 22.468 7.681 0 15.354-0.031 23.020-0.094l-1.175 0.008h0.536c6.87 0.064 14.993 0.101 23.124 0.101 123.438 0 244.901-8.455 363.842-24.816l-13.792 1.553c53.012-14.703 93.945-55.539 108.526-107.406l0.262-1.090c11.969-60.969 18.817-131.074 18.817-202.78 0-10.244-0.14-20.455-0.418-30.632l0.032 1.5c0.157-7.062 0.247-15.385 0.247-23.729 0-72.442-6.762-143.304-19.689-211.99l1.107 7.075c-14.783-53.136-55.819-94.124-107.894-108.579l-1.088-0.258c-105.237-14.244-226.876-22.375-350.414-22.375-7.883 0-15.759 0.033-23.627 0.099l1.207-0.008zM94.062 661.48c-10.155-56.628-15.962-121.812-15.962-188.352 0-7.652 0.077-15.286 0.23-22.902l-0.018 1.139v-1.024c-0.191-7.481-0.3-16.29-0.3-25.124 0-64.686 5.84-128.007 17.020-189.467l-0.97 6.426c7.275-26.17 27.469-46.363 53.101-53.51l0.537-0.128c98.342-13.086 212.043-20.555 327.488-20.555 8.966 0 17.922 0.045 26.868 0.135l-1.368-0.011c7.89-0.082 17.213-0.129 26.548-0.129 115.085 0 228.505 7.134 339.84 20.984l-13.303-1.349c26.165 7.284 46.354 27.474 53.51 53.101l0.128 0.537c10.206 55.115 16.043 118.533 16.043 183.314 0 8.738-0.106 17.451-0.317 26.137l0.025-1.287c0 0.39 0 0.829 0 1.219 0.282 8.951 0.443 19.477 0.443 30.041 0 63.752-5.857 126.136-17.061 186.643l0.965-6.277c-7.284 26.165-27.474 46.354-53.101 53.51l-0.537 0.128c-99.47 13.438-214.449 21.108-331.22 21.108-7.705 0-15.402-0.033-23.090-0.1l1.177 0.008c-7.803 0.080-17.023 0.126-26.253 0.126-115.155 0-228.644-7.133-340.049-20.981l13.314 1.35c-26.203-7.846-46.328-28.31-53.555-54.158l-0.132-0.552zM945.298 231.302v0zM401.018 293.376v316.952l273.896-158.476z" />
<glyph unicode="&#xe917;" glyph-name="arrow-point-to-right" horiz-adv-x="1797" d="M809.401-27.199l-772.6 772.6c-18.175 21.677-29.214 49.873-29.214 80.647 0 69.545 56.377 125.922 125.922 125.922 30.774 0 58.97-11.039 80.843-29.374l-0.196 0.16 683.48-683.48 684.145 685.031c21.677 18.175 49.873 29.214 80.647 29.214 69.545 0 125.922-56.377 125.922-125.922 0-30.774-11.039-58.97-29.374-80.843l0.16 0.196-772.6-772.6c-22.727-22.624-54.068-36.611-88.677-36.611s-65.951 13.987-88.682 36.616l0.005-0.005z" />
<glyph unicode="&#xe918;" glyph-name="arrow-point-to-up" horiz-adv-x="1796" d="M809.339 923.321l-772.46-772.46c-21.889-22.618-35.379-53.479-35.379-87.491 0-69.516 56.354-125.87 125.87-125.87 34.012 0 64.874 13.49 87.526 35.412l-0.034-0.033 683.468 683.468 683.468-683.468c22.618-21.889 53.479-35.379 87.491-35.379 69.516 0 125.87 56.354 125.87 125.87 0 34.012-13.49 64.874-35.412 87.526l0.033-0.034-772.66 772.46c-22.767 22.711-54.189 36.754-88.891 36.754s-66.124-14.043-88.894-36.756l0.003 0.003z" />
<glyph unicode="&#xe919;" glyph-name="done" d="M708.096 640.683l-253.668-258.389-129.991 130.503-69.689-69.689 204.8-204.402 329.159 319.204zM512 960c-282.77 0-512-229.23-512-512s229.23-512 512-512c282.77 0 512 229.23 512 512v0c0 282.77-229.23 512-512 512v0zM512 28.672c-231.588 0-419.328 187.74-419.328 419.328s187.74 419.328 419.328 419.328c231.588 0 419.328-187.74 419.328-419.328v0c0-231.588-187.74-419.328-419.328-419.328v0z" />
<glyph unicode="&#xe91a;" glyph-name="eye-active" horiz-adv-x="1835" d="M83.793 379.614c0.105 0 0.229-0.001 0.353-0.001 26.624 0 50.312 12.569 65.455 32.097l0.141 0.189c178.008 232.326 455.579 380.645 767.793 380.645s589.784-148.319 766.097-378.341l1.696-2.304c15.284-19.716 38.972-32.285 65.596-32.285 0.124 0 0.248 0 0.372 0.001h-0.019c46.252 0.034 83.733 37.536 83.733 83.793 0 19.34-6.552 37.15-17.558 51.331l0.142-0.19c-208.912 271.901-534.198 445.424-900.013 445.424s-691.102-173.524-898.039-442.751l-1.973-2.673c-10.864-13.99-17.416-31.8-17.416-51.14 0-46.256 37.481-83.758 83.729-83.793h0.003zM1350.249 381.177c0-245.865-199.313-445.177-445.177-445.177s-445.177 199.313-445.177 445.177c0 245.865 199.313 445.177 445.177 445.177s445.177-199.313 445.177-445.177z" />
<glyph unicode="&#xe91b;" glyph-name="eye-unactive" horiz-adv-x="1852" d="M84.612 374.381c0.13-0.001 0.283-0.001 0.436-0.001 26.859 0 50.758 12.671 66.045 32.362l0.142 0.19c179.612 234.436 459.694 384.104 774.734 384.104s595.122-149.668 773.023-381.779l1.711-2.325c15.448-19.881 39.361-32.551 66.233-32.551 0.137 0 0.274 0 0.411 0.001h-0.021c46.539 0.252 84.168 38.037 84.168 84.61 0 19.505-6.6 37.469-17.689 51.78l0.144-0.193c-210.779 274.376-539.002 449.484-908.123 449.484s-697.343-175.107-906.13-446.783l-1.993-2.7c-10.945-14.117-17.545-32.081-17.545-51.587 0-46.574 37.63-84.359 84.144-84.61h0.024zM936.438 857.781c-254.411 0-460.652-206.241-460.652-460.652s206.241-460.652 460.652-460.652c254.411 0 460.652 206.241 460.652 460.652v0c-0.271 254.302-206.35 460.382-460.626 460.652h-0.026zM1168.477 397.128c0-128.152-103.888-232.039-232.039-232.039s-232.039 103.888-232.039 232.039c0 128.152 103.888 232.039 232.039 232.039v0c128.187-0.163 232.039-104.116 232.039-232.325 0-0.034 0-0.067 0-0.101v0.005z" />
<glyph unicode="&#xe91c;" glyph-name="invalid" d="M512 960c-282.77 0-512-229.23-512-512s229.23-512 512-512c282.77 0 512 229.23 512 512v0c0 282.77-229.23 512-512 512v0zM512 16c-238.587 0-432 193.413-432 432s193.413 432 432 432c238.587 0 432-193.413 432-432v0c0-238.587-193.413-432-432-432v0zM506.496 327.488c-18.231 0.008-33.186 14.027-34.679 31.873l-0.009 0.127-23.616 281.152c-0.122 1.417-0.192 3.067-0.192 4.733 0 32.271 26.161 58.432 58.432 58.432s58.432-26.161 58.432-58.432c0-1.666-0.070-3.316-0.206-4.946l0.014 0.213-23.552-281.216c-1.532-17.924-16.44-31.897-34.62-31.936h-0.004zM506.496 306.816c20.96 0 37.952-16.992 37.952-37.952s-16.992-37.952-37.952-37.952c-20.96 0-37.952 16.992-37.952 37.952v0c0 20.96 16.992 37.952 37.952 37.952v0z" />
<glyph unicode="&#xe91d;" glyph-name="magnifying-glass" d="M1001.253 70.144l-211.31 211.090c47.735 67.388 76.304 151.285 76.304 241.856 0 1.295-0.006 2.59-0.018 3.882l0.001-0.198c0.001 0.35 0.002 0.764 0.002 1.178 0 60.358-12.566 117.781-35.225 169.796l1.066-2.746c-43.935 104.952-125.665 186.777-227.757 229.796l-2.789 1.043c-49.643 21.584-107.469 34.141-168.229 34.141s-118.586-12.557-171.026-35.217l2.797 1.076c-105.017-43.969-186.88-125.784-229.87-227.974l-1.042-2.792c-21.584-49.643-34.141-107.469-34.141-168.229s12.557-118.586 35.217-171.026l-1.076 2.797c44-104.958 125.808-186.766 227.973-229.724l2.792-1.042c49.283-21.593 106.722-34.159 167.095-34.159 0.398 0 0.797 0.001 1.195 0.002h-0.061c1.178-0.012 2.57-0.019 3.963-0.019 90.482 0 174.305 28.514 242.972 77.046l-1.321-0.886 211.090-210.432c13.399-14.428 32.473-23.426 53.648-23.426 0.605 0 1.209 0.007 1.81 0.022l-0.089-0.002c43.504 0.003 78.769 35.271 78.769 78.775 0 21.588-8.684 41.148-22.749 55.377l0.007-0.008zM628.224 331.995c-48.367-50.147-116.147-81.289-191.201-81.289-1.335 0-2.668 0.010-3.999 0.029l0.201-0.002c-1.065-0.015-2.322-0.024-3.581-0.024-75.053 0-142.832 31.141-191.122 81.206l-0.077 0.080c-49.931 48.337-80.925 115.974-80.925 190.85 0 1.381 0.011 2.76 0.032 4.137l-0.002-0.208c-0.019 1.169-0.029 2.548-0.029 3.929 0 74.876 30.994 142.513 80.853 190.781l0.072 0.069c48.337 49.931 115.974 80.925 190.85 80.925 1.381 0 2.76-0.011 4.137-0.032l-0.208 0.002c1.159 0.018 2.528 0.029 3.899 0.029 74.886 0 142.532-30.994 190.812-80.853l0.069-0.071c49.931-48.337 80.925-115.974 80.925-190.85 0-1.381-0.011-2.76-0.032-4.137l0.002 0.208c0.019-1.169 0.029-2.548 0.029-3.929 0-74.876-30.994-142.513-80.853-190.781l-0.072-0.069z" />
<glyph unicode="&#xe91e;" glyph-name="question-mark" d="M512 960c-282.77 0-512-229.23-512-512s229.23-512 512-512c282.77 0 512 229.23 512 512v0c0 282.77-229.23 512-512 512v0zM512 16c-238.587 0-432 193.413-432 432s193.413 432 432 432c238.587 0 432-193.413 432-432v0c0-238.587-193.413-432-432-432v0zM480.128 253.824h116.672v-58.304h-116.672v58.304zM652.288 660.736c-12.963 13.263-28.582 23.87-46.003 30.968l-0.909 0.328c-19.066 7.609-41.163 12.022-64.291 12.022-1.54 0-3.076-0.020-4.607-0.058l0.227 0.005c-0.614 0.009-1.34 0.014-2.067 0.014-21.657 0-42.285-4.405-61.037-12.368l1.023 0.386c-19.024-8.054-35.207-19.354-48.588-33.354l-0.052-0.054c-13.463-13.311-24.093-29.456-30.927-47.469l-0.305-0.915c-6.933-16.537-10.961-35.755-10.961-55.914 0-2.304 0.053-4.595 0.157-6.873l-0.012 0.323h61.824c-0.068 1.46-0.106 3.172-0.106 4.893 0 26.693 9.28 51.219 24.789 70.527l-0.171-0.22c14.606 17.818 36.617 29.097 61.262 29.097 1.819 0 3.624-0.061 5.412-0.182l-0.242 0.013c2.777 0.381 5.987 0.598 9.247 0.598 39.658 0 71.808-32.15 71.808-71.808 0-2.917-0.174-5.793-0.512-8.619l0.033 0.341c0.002-0.2 0.003-0.436 0.003-0.673 0-19.467-6.965-37.308-18.538-51.166l0.103 0.127c-12.799-15.955-25.716-30.231-39.421-43.71l-0.067-0.066c-13.296-13.449-25.677-27.88-36.996-43.146l-0.764-1.078c-10.358-13.834-16.585-31.283-16.585-50.186 0-1.234 0.027-2.462 0.079-3.684l-0.006 0.174v-49.856h60.544v26.816c-0.044 1.060-0.068 2.304-0.068 3.554 0 13.937 3.092 27.152 8.626 38.997l-0.238-0.566c6.070 12.647 13.559 23.512 22.468 33.033l-0.068-0.073c9.281 10.266 18.848 19.712 28.925 28.593l0.387 0.335c10.486 9.343 20.080 19.018 29.051 29.254l0.325 0.378c8.917 10.075 16.484 21.637 22.236 34.203l0.356 0.869c5.802 12.708 9.184 27.564 9.184 43.21 0 0.919-0.012 1.836-0.035 2.749l0.003-0.135c-0.080 16.849-3.123 32.964-8.634 47.882l0.314-0.97c-5.932 16.88-14.856 31.368-26.239 43.524l0.063-0.068z" />
<glyph unicode="&#xe91f;" glyph-name="reload-symbol" horiz-adv-x="929" d="M571.908 788.572l-137.021-137.021c-3.664-3.66-8.723-5.924-14.311-5.924s-10.647 2.264-14.311 5.924v0l-1.979 2.055v100.938c-166.164-12.056-296.405-149.825-296.405-318.013 0-121.381 67.836-226.918 167.664-280.769l1.693-0.835c17.182-9.269 28.66-27.14 28.66-47.691 0-29.828-24.181-54.009-54.009-54.009-9.277 0-18.008 2.339-25.635 6.46l0.286-0.141c-135.908 73.217-226.72 214.507-226.72 377.008 0 227.89 178.6 414.065 403.464 426.191l1.078 0.046v89.672l2.284 1.675c3.664 3.66 8.723 5.924 14.311 5.924s10.647-2.264 14.311-5.924v0l137.021-137.021c3.525-3.639 5.698-8.607 5.698-14.082 0-5.665-2.326-10.786-6.075-14.461l-0.003-0.003zM493.883-58.062l-137.021 137.021c-3.66 3.664-5.924 8.723-5.924 14.311s2.264 10.647 5.924 14.311v0l137.021 137.021c3.667 3.683 8.742 5.962 14.349 5.962s10.682-2.279 14.348-5.961l0.001-0.001 1.903-1.979v-100.786c166.13 12.047 296.346 149.786 296.346 317.938 0 121.345-67.811 226.851-167.605 280.692l-1.692 0.835c-17.903 9.056-29.962 27.311-29.962 48.384 0 29.849 24.198 54.047 54.047 54.047 9.814 0 19.017-2.616 26.951-7.188l-0.262 0.139c135.836-73.238 226.589-214.49 226.589-376.938 0-227.843-178.528-413.99-403.328-426.183l-1.084-0.047v-89.368l-1.979-1.979c-3.683-3.711-8.787-6.008-14.426-6.008-5.526 0-10.536 2.205-14.2 5.783l0.004-0.004z" />
<glyph unicode="&#xe920;" glyph-name="upload1" horiz-adv-x="976" d="M863.963 356.928v-309.976h-752.092v309.976h-111.871v-420.999h975.833v420.999zM287.164 599.457l155.8 156.647v-558.295h106.786v558.295l155.8-156.647 75.287 75.287-284.55 285.257-75.287-75.287-209.122-209.97z" />
<glyph unicode="&#xe921;" glyph-name="minus" horiz-adv-x="5160" d="M4553.457 960h-3946.447c-11.995 0.899-25.982 1.412-40.089 1.412-294.815 0-537.328-223.935-566.72-510.989l-0.201-2.424c29.593-289.476 272.106-513.412 566.922-513.412 14.106 0 28.093 0.513 41.943 1.52l-1.854-0.108h3946.447c11.995-0.899 25.982-1.412 40.089-1.412 294.815 0 537.328 223.935 566.72 510.989l0.201 2.424c-29.593 289.476-272.106 513.412-566.922 513.412-14.106 0-28.093-0.513-41.943-1.52l1.854 0.108z" />
<glyph unicode="&#xe922;" glyph-name="done-alert" d="M658.883 582.881l-182.641-186.040-93.594 93.962-50.176-50.176 147.456-147.169 236.995 229.827zM512 960c-282.77 0-512-229.23-512-512s229.23-512 512-512c282.77 0 512 229.23 512 512v0c0 282.77-229.23 512-512 512v0zM512 28.652c-231.6 0-419.348 187.749-419.348 419.348s187.749 419.348 419.348 419.348c231.6 0 419.348-187.749 419.348-419.348v0c0-231.6-187.749-419.348-419.348-419.348v0z" />
<glyph unicode="&#xe923;" glyph-name="question-in-circular-button" d="M511.959 960c-282.747 0-511.959-229.212-511.959-511.959s229.212-511.959 511.959-511.959c282.747 0 511.959 229.212 511.959 511.959v0c0 282.747-229.212 511.959-511.959 511.959v0zM511.959 15.988c-238.576 0.023-431.971 193.432-431.971 432.012 0 238.593 193.418 432.012 432.012 432.012 238.579 0 431.988-193.395 432.012-431.968v-0.003c0-0.024 0-0.053 0-0.082 0-238.571-193.4-431.971-431.971-431.971-0.029 0-0.057 0-0.086 0h0.004zM480.095 253.824h116.645v-58.322h-116.645v58.322zM652.277 660.729c-12.959 13.26-28.571 23.865-45.986 30.963l-0.909 0.328c-19.063 7.604-41.155 12.014-64.277 12.014-1.55 0-3.095-0.020-4.635-0.059l0.228 0.005c-0.612 0.009-1.333 0.014-2.056 0.014-21.649 0-42.27-4.402-61.017-12.359l1.024 0.386c-19.016-8.059-35.191-19.363-48.563-33.365l-0.053-0.055c-13.469-13.305-24.106-29.445-30.945-47.455l-0.305-0.915c-6.93-16.534-10.956-35.748-10.956-55.903 0-2.291 0.052-4.571 0.155-6.837l-0.012 0.322h61.804c-0.065 1.436-0.103 3.12-0.103 4.813 0 26.727 9.303 51.282 24.847 70.602l-0.17-0.218c14.607 17.811 36.615 29.085 61.255 29.085 1.821 0 3.628-0.062 5.419-0.183l-0.242 0.013c2.763 0.376 5.956 0.591 9.199 0.591 39.675 0 71.838-32.163 71.838-71.838 0-2.907-0.173-5.774-0.508-8.591l0.033 0.341c0.002-0.202 0.003-0.44 0.003-0.678 0-19.471-6.964-37.315-18.537-51.177l0.103 0.127c-12.787-15.962-25.69-30.24-39.38-43.722l-0.062-0.061c-13.297-13.442-25.678-27.863-36.999-43.117l-0.763-1.075c-10.283-13.801-16.463-31.187-16.463-50.016 0-1.294 0.029-2.581 0.087-3.86l-0.007 0.182v-49.844h60.575v26.663c-0.050 1.138-0.079 2.474-0.079 3.816 0 13.835 3.047 26.958 8.507 38.734l-0.237-0.57c6.071 12.651 13.561 23.519 22.471 33.043l-0.068-0.073c9.276 10.281 18.834 19.735 28.903 28.626l0.381 0.33c10.5 9.34 20.105 19.009 29.086 29.239l0.321 0.373c8.923 10.071 16.494 21.629 22.252 34.191l0.357 0.868c5.791 12.698 9.167 27.54 9.167 43.171 0 0.935-0.012 1.868-0.036 2.797l0.003-0.137c-0.032 16.84-3.031 32.971-8.503 47.909l0.312-0.972c-6.006 16.925-15.023 31.441-26.512 43.595l0.054-0.058z" />
<glyph unicode="&#xe924;" glyph-name="warning" d="M512 960c-282.77 0-512-229.23-512-512s229.23-512 512-512c282.77 0 512 229.23 512 512v0c0 282.77-229.23 512-512 512v0zM512 15.995c-238.59 0-432.005 193.415-432.005 432.005s193.415 432.005 432.005 432.005c238.59 0 432.005-193.415 432.005-432.005v0c0-238.59-193.415-432.005-432.005-432.005v0zM506.634 297.595c-21.683 0.009-39.476 16.649-41.318 37.855l-0.011 0.156-28.017 334.807c-0.17 1.823-0.266 3.942-0.266 6.083 0 38.457 31.175 69.632 69.632 69.632s69.632-31.175 69.632-69.632c0-2.142-0.097-4.261-0.286-6.353l0.020 0.27-28.017-334.807c-1.853-21.368-19.656-38.011-41.346-38.011-0.008 0-0.016 0-0.025 0h0.001zM506.593 272.978c24.884 0 45.056-20.172 45.056-45.056s-20.172-45.056-45.056-45.056c-24.884 0-45.056 20.172-45.056 45.056v0c0 24.884 20.172 45.056 45.056 45.056v0z" />
<glyph unicode="&#xe925;" glyph-name="arrow-point-to-right1" horiz-adv-x="584" d="M21.022 498.669l440.31 440.31c12.892 12.477 30.484 20.167 49.871 20.167 39.625 0 71.747-32.122 71.747-71.747 0-19.387-7.69-36.979-20.185-49.89l0.019 0.020-389.584-389.584 389.584-389.584c13.498-13.063 21.876-31.343 21.876-51.581 0-39.625-32.122-71.747-71.747-71.747-20.238 0-38.518 8.379-51.562 21.857l-0.019 0.020-440.31 440.424c-12.945 12.977-20.95 30.888-20.95 50.669s8.005 37.691 20.952 50.67l-0.001-0.001z" />
<glyph unicode="&#xe926;" glyph-name="one-icon" d="M1024 825.263c0-74.413-60.324-134.737-134.737-134.737s-134.737 60.324-134.737 134.737c0 74.413 60.324 134.737 134.737 134.737s134.737-60.324 134.737-134.737zM1024 448c0-74.413-60.324-134.737-134.737-134.737s-134.737 60.324-134.737 134.737c0 74.413 60.324 134.737 134.737 134.737s134.737-60.324 134.737-134.737zM1024 70.737c0-74.413-60.324-134.737-134.737-134.737s-134.737 60.324-134.737 134.737c0 74.413 60.324 134.737 134.737 134.737s134.737-60.324 134.737-134.737zM646.737 825.263c0-74.413-60.324-134.737-134.737-134.737s-134.737 60.324-134.737 134.737c0 74.413 60.324 134.737 134.737 134.737s134.737-60.324 134.737-134.737zM646.737 448c0-74.413-60.324-134.737-134.737-134.737s-134.737 60.324-134.737 134.737c0 74.413 60.324 134.737 134.737 134.737s134.737-60.324 134.737-134.737zM646.737 70.737c0-74.413-60.324-134.737-134.737-134.737s-134.737 60.324-134.737 134.737c0 74.413 60.324 134.737 134.737 134.737s134.737-60.324 134.737-134.737zM269.474 825.263c0-74.413-60.324-134.737-134.737-134.737s-134.737 60.324-134.737 134.737c0 74.413 60.324 134.737 134.737 134.737s134.737-60.324 134.737-134.737zM269.474 448c0-74.413-60.324-134.737-134.737-134.737s-134.737 60.324-134.737 134.737c0 74.413 60.324 134.737 134.737 134.737s134.737-60.324 134.737-134.737zM269.474 70.737c0-74.413-60.324-134.737-134.737-134.737s-134.737 60.324-134.737 134.737c0 74.413 60.324 134.737 134.737 134.737s134.737-60.324 134.737-134.737z" />
<glyph unicode="&#xe927;" glyph-name="dropdown-arrow" horiz-adv-x="1152" d="M576-64l-576 1024h1152z" />
<glyph unicode="&#xe928;" glyph-name="search1" horiz-adv-x="989" d="M973.588 27.294l-243.712 253.479c60.034 71.27 96.515 164.101 96.515 265.452 0 228.26-185.042 413.302-413.302 413.302s-413.302-185.042-413.302-413.302c0-228.26 185.042-413.302 413.302-413.302 0.13 0 0.261 0 0.391 0h-0.020c0.303-0.001 0.661-0.001 1.020-0.001 88.378 0 170.21 28.028 237.092 75.68l-1.253-0.848 245.602-255.37c9.918-11.004 24.221-17.891 40.132-17.891 29.8 0 53.957 24.157 53.957 53.957 0 15.167-6.258 28.872-16.332 38.674l-0.012 0.012zM413.46 852.165c168.792 0 305.625-136.833 305.625-305.625s-136.833-305.625-305.625-305.625c-168.792 0-305.625 136.833-305.625 305.625v0c0.179 168.72 136.905 305.445 305.607 305.625h0.017z" />
<glyph unicode="&#xe929;" d="M1024 448c0-282.77-229.23-512-512-512s-512 229.23-512 512c0 282.77 229.23 512 512 512s512-229.23 512-512z" />
<glyph unicode="&#xe92a;" glyph-name="Union-43" horiz-adv-x="1136" d="M289.212 15.984l-41.58-43.382-54.855 157.692 173.053-33.188-40.49-42.197c70.844-43.381 156.572-69.126 248.303-69.269h0.040c0.443-0.001 0.967-0.002 1.492-0.002 152.905 0 288.884 72.469 375.463 184.935l0.822 1.112 4.030 5.31 43.619-29.158-4.457-5.974c-97.762-125.795-249.084-205.96-419.131-205.96-0.647 0-1.293 0.001-1.939 0.003h0.1c-0.403-0.001-0.88-0.002-1.358-0.002-104.769 0-202.575 29.809-285.4 81.408l2.287-1.328zM523.806 160.447v38.546c0 0.051 0 0.11 0 0.17 0 68.069-48.544 124.8-112.901 137.463l-0.888 0.146-34.421 6.543-87.996-152.808-87.759 150.912-34.421-6.495c-65.242-12.788-113.788-69.509-113.788-137.569 0-0.074 0-0.147 0-0.221v0.011-36.697h-51.631v36.697c0 0.109 0 0.239 0 0.368 0 93.020 66.226 170.573 154.1 188.080l1.222 0.203 70.312 13.939 61.872-107.008 61.92 107.008 70.359-13.939c89.061-17.996 155.189-95.589 155.274-188.642v-36.706zM645.275 433.729c0 0.014 0 0.031 0 0.047 0 135.585 109.913 245.498 245.498 245.498s245.498-109.913 245.498-245.498c0-135.585-109.913-245.498-245.498-245.498v0c-135.503 0.162-245.31 109.952-245.498 245.433v0.018zM696.005 433.729c0.027-107.547 87.217-194.72 194.768-194.72 107.567 0 194.768 87.2 194.768 194.768s-87.2 194.768-194.768 194.768v0c-107.561-0.081-194.734-87.254-194.815-194.807v-0.008zM864.127 258.305v37.929c-43.326 2.631-77.592 37.936-78.56 81.455l-0.002 0.094v7.017h53.291v-7.017c0.372-14.775 11.038-26.952 25.076-29.649l0.194-0.031v60.45c-43.851 1.542-78.815 37.462-78.815 81.548s34.963 80.006 78.674 81.544l0.141 0.004v37.503h53.291v-37.929c43.326-2.631 77.592-37.936 78.56-81.455l0.002-0.094v-7.017h-53.291v7.444c-0.372 14.775-11.038 26.952-25.076 29.649l-0.194 0.031v-60.355c43.851-1.542 78.815-37.462 78.815-81.548s-34.963-80.006-78.674-81.544l-0.141-0.004v-37.929zM917.418 348.388c14.428 2.378 25.299 14.759 25.299 29.68s-10.871 27.302-25.124 29.656l-0.175 0.024zM838.857 490.102c0.39-14.768 11.047-26.936 25.075-29.648l0.195-0.031v59.36c-14.232-2.727-24.899-14.905-25.27-29.641l-0.001-0.039zM140.292 574.258c0 89.028 72.172 161.2 161.2 161.2s161.2-72.172 161.2-161.2c0-89.028-72.172-161.2-161.2-161.2v0c-88.963 0.162-161.038 72.237-161.2 161.184v0.016zM192.871 574.258c0-60.042 48.673-108.715 108.715-108.715s108.715 48.673 108.715 108.715c0 60.042-48.673 108.715-108.715 108.715v0c-59.966-0.188-108.527-48.749-108.715-108.697v-0.018zM803.108 770.353l44.093 40.063c-77.526 61.233-176.666 98.22-284.445 98.22-141.995 0-268.995-64.2-353.558-165.157l-0.587-0.72-4.741-5.452-38.356 33.52 4.741 5.31c95.275 112.256 236.259 183.207 393.832 183.863h0.113c0.073 0 0.161 0 0.248 0 122.157 0 234.288-42.927 322.131-114.52l-0.926 0.732 45.515 41.343 39.304-169.355z" />
<glyph unicode="&#xe92b;" d="M404.48 240.998l-190.080 191.206c-5.293 5.337-8.564 12.687-8.564 20.8s3.271 15.463 8.566 20.802l-0.002-0.002 41.344 41.6c5.28 5.323 12.598 8.618 20.685 8.618s15.405-3.295 20.683-8.616l0.002-0.002 128-128.794 274.33 275.84c5.28 5.323 12.598 8.618 20.685 8.618s15.405-3.295 20.683-8.616l0.002-0.002 41.37-41.6c5.293-5.337 8.564-12.687 8.564-20.8s-3.271-15.463-8.566-20.802l0.002 0.002-336.333-338.253c-5.28-5.323-12.598-8.618-20.685-8.618s-15.405 3.295-20.683 8.616l-0.002 0.002z" />
<glyph unicode="&#xe92c;" glyph-name="Group-2803" d="M997.648 204.724l-127.406 127.576c-16.303 16.257-38.801 26.309-63.647 26.309s-47.344-10.052-63.649-26.312l-57.848-57.848c-12.346-12.319-29.388-19.936-48.209-19.936s-35.862 7.617-48.21 19.938l-250.74 250.74c-12.346 12.334-19.983 29.379-19.983 48.209s7.637 35.875 19.983 48.208l57.851 57.851c16.315 16.287 26.408 38.802 26.408 63.675s-10.093 47.388-26.407 63.674l-0.001 0.001-127.293 126.841c-16.291 16.237-38.768 26.276-63.59 26.276s-47.299-10.039-63.592-26.279l0.002 0.002-46.371-45.975c-58.652-58.785-94.92-139.924-94.92-229.535s36.268-170.75 94.925-229.541l397.368-397.594c58.722-58.788 139.882-95.154 229.535-95.154s170.812 36.366 229.532 95.151l46.317 46.317c16.274 16.306 26.338 38.815 26.338 63.675 0 24.888-10.086 47.42-26.394 63.732v0zM183.617 891.236c5.434 5.435 12.942 8.796 21.234 8.796s15.8-3.362 21.234-8.796v0l127.293-126.897c5.432-5.425 8.792-12.923 8.792-21.206s-3.36-15.781-8.791-21.206v0l-21.206-21.206-169.649 169.649zM534.733 73.585l-397.374 397.6c-48.113 47.801-77.894 114.004-77.894 187.163 0 64.538 23.175 123.662 61.657 169.506l-0.332-0.407 169.14-169.423c-19.84-22.449-31.952-52.131-31.952-84.642 0-35.415 14.374-67.474 37.605-90.66l250.799-251.026c23.188-23.234 55.246-37.607 90.662-37.607 32.511 0 62.193 12.113 84.779 32.071l-0.137-0.119 169.14-169.14c-45.382-38.18-104.471-61.377-168.978-61.377-73.174 0-139.376 29.85-187.094 78.038l-0.021 0.021zM955.179 119.899l-21.206-21.206-169.649 169.649 21.206 21.206c5.431 5.418 12.927 8.768 21.206 8.768s15.775-3.35 21.207-8.769l127.122-127.236c5.435-5.434 8.796-12.942 8.796-21.234s-3.362-15.8-8.796-21.234v0z" />
<glyph unicode="&#xe92d;" glyph-name="alert" d="M1001.244 194.298l-361.222 663.973c-26.581 44.201-74.289 73.316-128.796 73.316s-102.215-29.115-128.419-72.641l-0.377-0.675-361.165-663.973c-13.222-21.871-21.046-48.291-21.046-76.538 0-82.676 67.022-149.697 149.697-149.697 0.039 0 0.078 0 0.117 0h722.369c0.039 0 0.085 0 0.13 0 82.694 0 149.732 67.037 149.732 149.732 0 28.233-7.814 54.64-21.397 77.178l0.377-0.674zM511.215 87.882c-33.064 0.026-59.858 26.836-59.858 59.904 0 33.084 26.82 59.904 59.904 59.904s59.904-26.82 59.904-59.904v0c-0.045-33.082-26.864-59.885-59.948-59.904h-0.002zM571.164 327.521c0-33.087-26.822-59.91-59.91-59.91s-59.91 26.822-59.91 59.91v0 299.543c0 33.087 26.822 59.91 59.91 59.91s59.91-26.822 59.91-59.91v0z" />
<glyph unicode="&#xe92e;" glyph-name="Close" d="M989.317 758.27l-309.986-309.986 309.986-310.327c18.286-20.734 29.448-48.13 29.448-78.133 0-65.378-52.999-118.377-118.377-118.377-29.89 0-57.192 11.078-78.025 29.352l0.135-0.116-310.782 310.441-309.645-310.441c-21.465-21.55-51.164-34.885-83.978-34.885-65.458 0-118.522 53.064-118.522 118.522 0 32.644 13.197 62.206 34.548 83.641l-0.004-0.004 311.123 310.327-311.123 309.986c-21.274 21.401-34.424 50.898-34.424 83.467 0 65.392 53.010 118.402 118.402 118.402 32.823 0 62.527-13.356 83.973-34.93l0.006-0.006 309.645-310.1 310.668 310.1c20.753 18.411 48.226 29.656 78.325 29.656 65.315 0 118.263-52.948 118.263-118.263 0-30.1-11.245-57.573-29.762-78.448l0.107 0.123z" />
<glyph unicode="&#xe92f;" glyph-name="Delete" d="M953.003 796.16h-168.755l-69.632 116.053c-17.485 28.823-48.693 47.787-84.331 47.787-0.016 0-0.033 0-0.049 0h-206.436c-0.014 0-0.030 0-0.047 0-35.638 0-66.846-18.964-84.085-47.35l-0.246-0.436-69.632-116.053h-168.755c-18.097 0-32.768-14.671-32.768-32.768v0-32.768c0-18.097 14.671-32.768 32.768-32.768v0h32.768l43.691-694.272c3.328-51.578 45.974-92.153 98.098-92.16h503.399c52.125 0.007 94.771 40.582 98.084 91.87l0.015 0.29 43.145 694.272h32.768c18.097 0 32.768 14.671 32.768 32.768v0 32.768c0 18.097-14.671 32.768-32.768 32.768v0zM423.799 861.696h206.438l39.322-65.536h-285.082zM778.786 9.728h-503.467l-43.213 688.128h589.414z" />
<glyph unicode="&#xe930;" glyph-name="Group-16473" d="M517.882 960c-207.008-0.244-374.754-167.991-374.998-374.975v-0.024c0-256.619 335.586-633.332 349.875-649.24 6.208-6.892 15.162-11.205 25.124-11.205s18.916 4.314 25.097 11.175l0.027 0.030c14.288 15.908 349.875 392.621 349.875 649.24-0.244 207.008-167.991 374.754-374.975 374.998h-0.024zM517.882 10.038c-112.95 134.168-307.462 398.836-307.462 574.964 0 169.807 137.655 307.462 307.462 307.462s307.462-137.655 307.462-307.462v0c0-176.128-194.489-440.749-307.462-574.964zM517.882 773.68c-104.204 0-188.678-84.474-188.678-188.678s84.474-188.678 188.678-188.678c104.204 0 188.678 84.474 188.678 188.678v0c-0.122 104.155-84.523 188.556-188.667 188.678h-0.011zM517.882 463.86c-66.905 0-121.142 54.237-121.142 121.142s54.237 121.142 121.142 121.142c66.905 0 121.142-54.237 121.142-121.142v0c-0.081-66.872-54.27-121.060-121.134-121.142h-0.008zM666.791 591.336c0-78.912-63.971-142.884-142.884-142.884s-142.884 63.971-142.884 142.884c0 78.912 63.971 142.884 142.884 142.884s142.884-63.971 142.884-142.884z" />
<glyph unicode="&#xe931;" d="M1024 448c0-282.77-229.23-512-512-512s-512 229.23-512 512c0 282.77 229.23 512 512 512s512-229.23 512-512z" />
<glyph unicode="&#xe932;" d="M847.597 421.276l-114.638-114.563c-9.221-9.249-21.975-14.971-36.065-14.971s-26.844 5.722-36.064 14.97l-0.001 0.001-114.388 114.563c-9.23 9.23-14.939 21.981-14.939 36.065 0 28.168 22.835 51.003 51.003 51.003 14.084 0 26.835-5.709 36.065-14.939l31.12-31.12c-8.335 96.119-88.417 170.983-185.985 170.983-103.080 0-186.643-83.563-186.643-186.643 0-103.050 83.515-186.595 186.554-186.643h0.005c28.125 0 50.925-22.8 50.925-50.925s-22.8-50.925-50.925-50.925v0c-0.067 0-0.147 0-0.226 0-159.358 0-288.543 129.185-288.543 288.543s129.185 288.543 288.543 288.543c151.579 0 275.859-116.881 287.631-265.433l0.064-1.007 24.476 24.526c9.23 9.23 21.981 14.939 36.065 14.939 28.168 0 51.003-22.835 51.003-51.003 0-14.084-5.709-26.835-14.939-36.065v0z" />
<glyph unicode="&#xe933;" glyph-name="Icon-awesome-share" d="M1007.388 587.435l-352.028 303.986c-8.356 7.215-19.324 11.61-31.317 11.61-26.495 0-47.981-21.447-48.043-47.928v-160.12c-321.252-3.783-576-68.068-576-372.537 0-122.88 79.161-244.622 166.656-308.252 5.932-4.573 13.47-7.33 21.651-7.33 19.684 0 35.641 15.957 35.641 35.641 0 3.181-0.417 6.265-1.199 9.2l0.056-0.249c-90.681 290.133 43.008 366.933 353.166 371.484v-175.844c0.062-26.486 21.548-47.934 48.043-47.934 11.994 0 22.961 4.395 31.379 11.662l-0.062-0.052 352.057 304.071c10.182 8.853 16.581 21.827 16.581 36.295s-6.4 27.442-16.523 36.245l-0.058 0.050z" />
<glyph unicode="&#xe934;" glyph-name="Icon-ionic-ios-arrow-back" d="M386.987 456.277l381.312 381.013c12.99 13.028 21.023 31.005 21.023 50.859 0 39.781-32.249 72.031-72.031 72.031-19.928 0-37.966-8.092-51.006-21.17l-0.002-0.002-432-431.531c-12.951-13-20.958-30.934-20.958-50.737 0-18.739 7.17-35.804 18.915-48.601l-0.048 0.053 433.792-434.901c13.042-13.080 31.080-21.172 51.008-21.172 39.781 0 72.031 32.249 72.031 72.031 0 19.854-8.032 37.831-21.024 50.86l0.002-0.002z" />
<glyph unicode="&#xe935;" glyph-name="Icon-ionic-ios-arrow-down" d="M503.979 344.192l381.013 381.312c12.993 13.065 30.982 21.151 50.859 21.151s37.865-8.086 50.855-21.147l0.003-0.003c12.959-13.097 20.965-31.118 20.965-51.008s-8.006-37.911-20.971-51.014l0.006 0.006-431.531-432c-13-12.951-30.934-20.958-50.737-20.958-18.739 0-35.804 7.17-48.601 18.915l0.053-0.048-434.901 433.792c-13.080 13.042-21.172 31.080-21.172 51.008 0 39.781 32.249 72.031 72.031 72.031 19.854 0 37.831-8.032 50.86-21.024l-0.002 0.002z" />
<glyph unicode="&#xe936;" glyph-name="Icon-ionic-ios-arrow-dropdown" d="M245.165 559.502c-8.565-8.618-13.858-20.495-13.858-33.608s5.294-24.99 13.861-33.611l-0.002 0.002 235.573-234.837c8.584-8.553 20.427-13.842 33.505-13.842 12.328 0 23.559 4.699 31.998 12.404l-0.037-0.033 232.107 231.371c8.956 8.641 14.517 20.748 14.517 34.154 0 26.199-21.238 47.437-47.437 47.437-13.337 0-25.388-5.504-34.006-14.364l-0.011-0.011-199.374-196.398-199.549 201.614c-8.584 8.553-20.427 13.841-33.504 13.841-13.216 0-25.171-5.401-33.778-14.116l-0.005-0.005zM0 448c0-282.77 229.23-512 512-512s512 229.23 512 512c0 282.77-229.23 512-512 512v0c-0.021 0-0.046 0-0.070 0-282.731 0-511.93-229.199-511.93-511.93 0-0.025 0-0.050 0-0.074v0.004zM818.22 754.22c78.368-78.368 126.84-186.634 126.84-306.22 0-239.173-193.888-433.060-433.060-433.060-119.586 0-227.851 48.472-306.22 126.84v0c-78.368 78.368-126.84 186.634-126.84 306.22 0 239.173 193.888 433.060 433.060 433.060 119.586 0 227.851-48.472 306.22-126.84v0z" />
<glyph unicode="&#xe937;" glyph-name="Icon-ionic-ios-arrow-dropleft-circle" d="M512 960c-282.77 0-512-229.23-512-512s229.23-512 512-512c282.77 0 512 229.23 512 512v0c0 0.021 0 0.046 0 0.070 0 282.731-229.199 511.93-511.93 511.93-0.025 0-0.050 0-0.074 0h0.004zM618.846 248.451c8.565-8.618 13.858-20.495 13.858-33.608s-5.294-24.99-13.861-33.611l0.002 0.002c-8.495-8.522-20.244-13.794-33.225-13.794-0.085 0-0.171 0-0.256 0.001h0.013c-13.17 0.020-25.086 5.368-33.713 14.003v0l-231.371 232.107c-7.68 8.399-12.385 19.631-12.385 31.962 0 13.080 5.294 24.923 13.856 33.505l234.836 235.572c8.601 8.601 20.483 13.921 33.608 13.921 26.25 0 47.529-21.28 47.529-47.529 0-13.125-5.32-25.007-13.921-33.608v0l-201.649-199.374z" />
<glyph unicode="&#xe938;" glyph-name="icons--close--expand" d="M263.205 696.795c4.449 4.454 10.597 7.21 17.39 7.21s12.941-2.756 17.389-7.21l105.582-105.728v-34.67h-34.816l-105.728 105.728c-4.367 4.434-7.064 10.523-7.064 17.243 0 6.811 2.771 12.975 7.246 17.426l0.001 0.001zM584.375 375.589v-34.816l105.728-105.728c4.455-4.455 10.61-7.211 17.408-7.211 13.596 0 24.619 11.022 24.619 24.619 0 6.798-2.756 12.953-7.211 17.408v0l-105.728 105.728zM420.169 646.546v-106.715h-106.715c-13.603 0-24.631-11.028-24.631-24.631s11.028-24.631 24.631-24.631v0h131.365c13.593 0 24.613 11.019 24.613 24.613v0 0 131.365c-0.525 13.199-11.351 23.7-24.631 23.7s-24.106-10.501-24.629-23.652l-0.002-0.047zM518.693 416.622v-131.328c0.525-13.199 11.351-23.7 24.631-23.7s24.106 10.501 24.629 23.652l0.002 0.047v106.715h106.715c13.603 0 24.631 11.028 24.631 24.631s-11.028 24.631-24.631 24.631v0h-131.365c-13.593 0-24.613-11.019-24.613-24.613v0z" />
<glyph unicode="&#xe939;" glyph-name="icons-archived" d="M512-64c-0.023 0-0.049 0-0.076 0-72.118 0-135.644 36.791-172.831 92.628l-0.476 0.76c-12.554-2.697-26.977-4.241-41.761-4.241-114.714 0-207.708 92.994-207.708 207.708 0 14.784 1.544 29.206 4.481 43.116l-0.239-1.355c-56.607 37.698-93.401 101.254-93.401 173.404s36.794 135.705 92.642 172.928l0.76 0.476c-2.691 12.541-4.233 26.95-4.233 41.718 0 114.714 92.994 207.708 207.708 207.708 14.781 0 29.2-1.544 43.107-4.479l-1.355 0.239c37.698 56.607 101.254 93.401 173.404 93.401s135.705-36.794 172.928-92.642l0.476-0.76c12.541 2.691 26.95 4.233 41.718 4.233 114.714 0 207.708-92.994 207.708-207.708 0-14.781-1.544-29.2-4.479-43.107l0.239 1.355c56.607-37.698 93.401-101.254 93.401-173.404s-36.794-135.705-92.642-172.928l-0.76-0.476c2.69-12.539 4.231-26.944 4.231-41.709 0-114.714-92.994-207.708-207.708-207.708-14.765 0-29.17 1.541-43.064 4.47l1.355-0.239c-37.7-56.6-101.251-93.389-173.396-93.389-0.010 0-0.020 0-0.030 0h0.001zM389.612 152.392c12.984-34.816 31.785-120.381 122.388-120.381 87.818 0 106.988 79.217 122.388 120.381 60.989-27.607 115.589-54.6 171.581 1.393 62.013 62.013 19.62 131.809 1.393 171.581 34.816 12.984 120.381 31.785 120.381 122.388 0 87.818-79.217 106.988-120.381 122.388 15.401 33.792 62.587 107.602-1.393 171.581-62.013 62.013-131.809 19.62-171.581 1.393-12.984 35.185-31.785 120.791-122.388 120.791-87.818 0-106.988-79.217-122.388-120.381-33.792 15.401-107.602 62.587-171.581-1.393-62.013-62.013-19.62-131.809-1.393-171.581-34.98-13.189-120.586-31.99-120.586-122.593 0-87.818 79.217-106.988 120.381-122.388-15.401-33.792-62.587-107.602 1.393-171.581 61.972-61.972 129.556-20.808 171.786-1.597zM675.635 620.524h-301.752c-19.228 0-34.816-15.588-34.816-34.816v0-58.040c0.023-6.393 5.199-11.568 11.589-11.592h11.594v-197.304c0-0.012 0-0.027 0-0.041 0-12.804 10.38-23.183 23.183-23.183 0.014 0 0.029 0 0.043 0h278.526c0.012 0 0.027 0 0.041 0 12.804 0 23.183 10.38 23.183 23.183 0 0.014 0 0.029 0 0.043v-0.002 197.304h11.592c6.393 0.023 11.568 5.199 11.592 11.589v58.042c0 19.214-15.564 34.793-34.773 34.816h-0.002zM652.411 330.404h-255.304v185.672h255.304zM675.635 550.892h-301.752v34.816h301.752zM487.219 446.444h75.448c4.818 0 8.724 3.906 8.724 8.724v0 17.367c0 4.818-3.906 8.724-8.724 8.724h-75.612c-4.818 0-8.724-3.906-8.724-8.724v0-17.408c0.023-4.801 3.92-8.684 8.724-8.684 0 0 0 0 0 0v0z" />
<glyph unicode="&#xe93a;" glyph-name="icons-calendar" d="M736.929 216.986h-193.829c-17.728 0.115-32.068 14.455-32.183 32.172v193.84c0.115 17.728 14.455 32.068 32.172 32.183h193.84c17.728-0.115 32.068-14.455 32.183-32.172v-193.693c-0.033-17.79-14.404-32.213-32.172-32.329h-0.011zM155.56 830.8h96.783v96.9c0.115 17.728 14.455 32.068 32.172 32.183h64.757c17.728-0.115 32.068-14.455 32.183-32.172v-96.911h258.545v96.9c0.115 17.728 14.455 32.068 32.172 32.183h64.757c17.728-0.115 32.068-14.455 32.183-32.172v-96.911h97.046c53.52-0.017 96.9-43.407 96.9-96.929 0-0.041 0-0.082 0-0.123v0.006-710.568c0-53.522-43.38-96.912-96.898-96.929h-710.599c-53.52 0.017-96.9 43.407-96.9 96.929v710.568c0 0.035 0 0.076 0 0.117 0 53.522 43.38 96.912 96.898 96.929h0.002zM155.56 35.299c0.017-6.683 5.43-12.096 12.111-12.112h686.345c6.683 0.017 12.096 5.43 12.112 12.111v601.675h-710.568z" />
<glyph unicode="&#xe93b;" glyph-name="icons-chevron-light" d="M472.166 157.082l-455.68 450.56c-10.165 10.016-16.462 23.934-16.462 39.322s6.297 29.305 16.455 39.315l0.007 0.007 53.146 52.634c10.226 10.040 24.255 16.237 39.731 16.237s29.505-6.197 39.74-16.245l-0.009 0.008 362.906-356.966 362.906 357.069c10.226 10.040 24.255 16.237 39.731 16.237s29.505-6.197 39.74-16.245l-0.009 0.008 53.146-52.531c10.165-10.016 16.462-23.934 16.462-39.322s-6.297-29.305-16.455-39.315l-0.007-0.007-455.68-450.56c-10.248-10.161-24.36-16.44-39.937-16.44-15.475 0-29.503 6.197-39.738 16.244l0.009-0.009z" />
<glyph unicode="&#xe93c;" glyph-name="icons-clock-Filled" d="M512.034 959.966c-282.77 0-512-229.23-512-512s229.23-512 512-512c282.77 0 512 229.23 512 512v0c0 282.77-229.23 512-512 512v0zM629.931 237.193l-182.101 132.335c-6.207 4.568-10.2 11.832-10.24 20.030v347.449c0.039 13.67 11.11 24.742 24.777 24.781h98.991c13.67-0.039 24.742-11.11 24.781-24.777v-284.301l131.106-95.369c6.2-4.552 10.179-11.814 10.179-20.005 0-5.523-1.809-10.623-4.868-14.741l0.047 0.066-58.231-80.111c-4.6-6.1-11.833-10.003-19.978-10.003-5.439 0-10.471 1.74-14.571 4.694l0.074-0.051z" />
<glyph unicode="&#xe93d;" glyph-name="icons-clock-outlined" d="M512 960c-282.77 0-512-229.23-512-512s229.23-512 512-512c282.77 0 512 229.23 512 512v0c0 282.77-229.23 512-512 512v0zM512 34.987c-228.101 0-413.013 184.912-413.013 413.013s184.912 413.013 413.013 413.013c228.101 0 413.013-184.912 413.013-413.013v0c0-0.071 0-0.155 0-0.239 0-227.969-184.805-412.774-412.774-412.774-0.084 0-0.168 0-0.252 0h0.013zM639.59 250.539l-175.377 127.488c-6.207 4.568-10.2 11.832-10.24 20.030v338.984c0.039 13.67 11.11 24.742 24.777 24.781h66.052c13.67-0.039 24.742-11.11 24.781-24.777v-292.458l137.899-100.352c6.2-4.552 10.179-11.814 10.179-20.005 0-5.523-1.809-10.623-4.868-14.741l0.047 0.066-38.81-53.487c-4.599-6.117-11.842-10.031-19.999-10.031-5.415 0-10.427 1.725-14.517 4.655l0.075-0.051z" />
<glyph unicode="&#xe93e;" glyph-name="icons-done" d="M512-64c-0.023 0-0.049 0-0.076 0-72.118 0-135.644 36.791-172.831 92.628l-0.476 0.76c-12.554-2.697-26.977-4.241-41.761-4.241-114.714 0-207.708 92.994-207.708 207.708 0 14.784 1.544 29.206 4.481 43.116l-0.239-1.355c-56.607 37.698-93.401 101.254-93.401 173.404s36.794 135.705 92.642 172.928l0.76 0.476c-2.691 12.541-4.233 26.95-4.233 41.718 0 114.714 92.994 207.708 207.708 207.708 14.781 0 29.2-1.544 43.107-4.479l-1.355 0.239c37.698 56.607 101.254 93.401 173.404 93.401s135.705-36.794 172.928-92.642l0.476-0.76c12.541 2.691 26.95 4.233 41.718 4.233 114.714 0 207.708-92.994 207.708-207.708 0-14.781-1.544-29.2-4.479-43.107l0.239 1.355c56.607-37.698 93.401-101.254 93.401-173.404s-36.794-135.705-92.642-172.928l-0.76-0.476c2.69-12.539 4.231-26.944 4.231-41.709 0-114.714-92.994-207.708-207.708-207.708-14.765 0-29.17 1.541-43.064 4.47l1.355-0.239c-37.7-56.6-101.251-93.389-173.396-93.389-0.010 0-0.020 0-0.030 0h0.001zM389.612 152.392c12.984-34.816 31.785-120.381 122.388-120.381 87.818 0 106.988 79.217 122.388 120.381 60.989-27.607 115.589-54.6 171.581 1.393 62.013 62.013 19.62 131.809 1.393 171.581 34.816 12.984 120.381 31.785 120.381 122.388 0 87.818-79.217 106.988-120.381 122.388 15.401 33.792 62.587 107.602-1.393 171.581-62.013 62.013-131.809 19.62-171.581 1.393-12.984 35.185-31.785 120.791-122.388 120.791-87.818 0-106.988-79.217-122.388-120.381-33.792 15.401-107.602 62.587-171.581-1.393-62.013-62.013-19.62-131.809-1.393-171.581-34.98-13.189-120.586-31.99-120.586-122.593 0-87.818 79.217-106.988 120.381-122.388-15.401-33.792-62.587-107.602 1.393-171.581 61.972-61.972 129.556-20.808 171.786-1.597zM434.463 282.071l-157.164 150.528c-4.366 4.112-7.085 9.93-7.085 16.384s2.719 12.272 7.073 16.373l0.011 0.011 34.202 32.768c4.454 4.202 10.476 6.784 17.101 6.784s12.646-2.583 17.113-6.796l-0.012 0.011 105.841-101.417 226.755 217.17c4.454 4.202 10.476 6.784 17.101 6.784s12.646-2.583 17.113-6.796l-0.012 0.011 34.202-32.768c4.366-4.112 7.085-9.93 7.085-16.384s-2.719-12.272-7.073-16.373l-0.011-0.011-278.036-266.24c-4.454-4.202-10.476-6.784-17.101-6.784s-12.646 2.583-17.113 6.796l0.012-0.011z" />
<glyph unicode="&#xe93f;" d="M1024 448c0-282.77-229.23-512-512-512s-512 229.23-512 512c0 282.77 229.23 512 512 512s512-229.23 512-512z" />
<glyph unicode="&#xe940;" d="M406.648 239.977l-189.44 190.645c-5.274 5.316-8.533 12.638-8.533 20.721s3.259 15.405 8.535 20.723l-0.002-0.002 41.231 41.352c5.262 5.305 12.555 8.59 20.616 8.59s15.353-3.284 20.614-8.588l0.002-0.002 127.608-128.361 273.348 274.914c5.262 5.305 12.555 8.59 20.616 8.59s15.353-3.284 20.614-8.588l0.002-0.002 41.231-41.442c5.274-5.316 8.533-12.638 8.533-20.721s-3.259-15.405-8.535-20.723l0.002 0.002-335.209-337.107c-5.262-5.305-12.555-8.59-20.616-8.59s-15.353 3.284-20.614 8.588l-0.002 0.002z" />
<glyph unicode="&#xe941;" glyph-name="icons-error" d="M505.794 678.493c-84.123 0-166.943-38.757-166.943-131.413 0-85.457 97.932-118.319 118.97-149.194 15.794-22.962 10.519-55.234 53.9-55.234 0.081-0.001 0.177-0.001 0.274-0.001 23.101 0 41.829 18.727 41.829 41.829 0 0.764-0.021 1.524-0.061 2.278l0.005-0.105c0 78.258-114.998 95.977-114.998 160.427 0 35.468 23.614 56.506 63.054 56.506 84.123 0 51.262-86.73 114.998-86.73 1.026-0.095 2.219-0.149 3.424-0.149 21.713 0 39.315 17.602 39.315 39.315 0 0.325-0.004 0.65-0.012 0.973l0.001-0.048c0.031 64.419-73.697 121.546-153.755 121.546zM509.052 299.923c-29.768 0-53.9-24.132-53.9-53.9s24.132-53.9 53.9-53.9c29.768 0 53.9 24.132 53.9 53.9v0c-0.14 29.711-24.188 53.759-53.886 53.9h-0.013z" />
<glyph unicode="&#xe942;" d="M1024 448c0-282.77-229.23-512-512-512s-512 229.23-512 512c0 282.77 229.23 512 512 512s512-229.23 512-512z" />
<glyph unicode="&#xe943;" d="M460.8 499.2c-10.971-10.971-25.6-10.971-36.571 0 0 0 0 0 0 0l-106.057 106.057v32.914h36.571l106.057-106.057c10.971-10.971 10.971-25.6 0-32.914zM665.6 294.4v36.571l-106.057 106.057c-10.971 10.971-25.6 10.971-36.571 0s-10.971-25.6 0-36.571v0l106.057-106.057h36.571zM303.543 546.743v106.057h106.057c14.629 0 25.6 10.971 25.6 25.6s-10.971 25.6-25.6 25.6h-131.657c-14.629 0-25.6-10.971-25.6-25.6v0-131.657c0-14.629 10.971-25.6 25.6-25.6 14.629 3.657 25.6 14.629 25.6 25.6zM731.429 254.171v131.657c0 14.629-10.971 25.6-25.6 25.6s-25.6-10.971-25.6-25.6v-106.057h-106.057c-14.629 0-25.6-10.971-25.6-25.6s10.971-25.6 25.6-25.6h131.657c14.629 0 25.6 10.971 25.6 25.6 0 0 0 0 0 0z" />
<glyph unicode="&#xe944;" glyph-name="Iconionic-ios-arrow-up" d="M520.021 551.808l-381.013-381.312c-12.993-13.065-30.982-21.151-50.859-21.151s-37.865 8.086-50.855 21.147l-0.003 0.003c-12.959 13.097-20.965 31.118-20.965 51.008s8.006 37.911 20.971 51.014l-0.006-0.006 431.531 432c13 12.951 30.934 20.958 50.737 20.958 18.739 0 35.804-7.17 48.601-18.915l-0.053 0.048 434.901-433.792c13.080-13.042 21.172-31.080 21.172-51.008 0-39.781-32.249-72.031-72.031-72.031-19.854 0-37.831 8.032-50.86 21.024l0.002-0.002z" />
<glyph unicode="&#xe945;" glyph-name="icons-hide-password" d="M46.643 406.528c0.058 0 0.127 0 0.196 0 14.82 0 28.006 6.996 36.436 17.867l0.078 0.105c99.088 129.324 253.598 211.886 427.392 211.886s328.303-82.562 426.448-210.604l0.944-1.283c8.508-10.975 21.694-17.972 36.514-17.972 0.069 0 0.138 0 0.207 0h-0.011c25.746 0.019 46.61 20.895 46.61 46.643 0 10.766-3.647 20.679-9.774 28.573l0.079-0.106c-116.291 151.354-297.361 247.945-500.992 247.945s-384.702-96.592-499.894-246.458l-1.098-1.488c-6.047-7.788-9.695-17.702-9.695-28.467 0-25.749 20.864-46.624 46.608-46.643h0.002zM751.616 407.398c0-136.861-110.947-247.808-247.808-247.808s-247.808 110.947-247.808 247.808c0 136.861 110.947 247.808 247.808 247.808s247.808-110.947 247.808-247.808z" />
<glyph unicode="&#xe946;" d="M1024 448c0-282.77-229.23-512-512-512s-512 229.23-512 512c0 282.77 229.23 512 512 512s512-229.23 512-512z" />
<glyph unicode="&#xe947;" d="M526.643 704.102c48.467 0 87.757-39.29 87.757-87.757s-39.29-87.757-87.757-87.757c-48.467 0-87.757 39.29-87.757 87.757v0c0.058 48.423 39.326 87.654 87.757 87.654 0 0 0 0 0 0v0z" />
<glyph unicode="&#xe948;" glyph-name="location2" d="M512 960c-176.732 0-320-143.268-320-320 0-320 320-704 320-704s320 384 320 704c0 176.732-143.27 320-320 320zM512 444c-108.248 0-196 87.752-196 196s87.752 196 196 196 196-87.752 196-196-87.752-196-196-196zM388 640c0 68.483 55.517 124 124 124s124-55.517 124-124c0-68.483-55.517-124-124-124s-124 55.517-124 124z" />
<glyph unicode="&#xe949;" d="M643.43 173.363c0-13.856-11.232-25.088-25.088-25.088v0h-183.603c-13.856 0-25.088 11.232-25.088 25.088v50.125c0 13.856 11.232 25.088 25.088 25.088v0h25.088v133.683h-25.088c-13.856 0-25.088 11.232-25.088 25.088v50.278c0 13.856 11.232 25.088 25.088 25.088v0h133.683c13.844-0.029 25.059-11.244 25.088-25.085v-208.899h25.088c13.844-0.029 25.059-11.244 25.088-25.085v-0.003z" />
<glyph unicode="&#xe94a;" glyph-name="icons-info-light" d="M512 960c-282.77 0-512-229.23-512-512s229.23-512 512-512c282.77 0 512 229.23 512 512v0c-0.058 282.747-229.253 511.942-511.995 512h-0.005zM512 35.071c-228.055 0-412.929 184.875-412.929 412.929s184.875 412.929 412.929 412.929c228.055 0 412.929-184.875 412.929-412.929v0c0-0.075 0-0.164 0-0.253 0-227.915-184.761-412.676-412.676-412.676-0.089 0-0.178 0-0.267 0h0.014zM512 732.866c47.897 0 86.725-38.828 86.725-86.725s-38.828-86.725-86.725-86.725c-47.897 0-86.725 38.828-86.725 86.725 0 0.053 0 0.107 0 0.16v-0.008c0.058 47.853 38.864 86.624 86.725 86.624 0 0 0 0 0 0v0zM627.414 208.52c0-13.693-11.1-24.793-24.793-24.793v0h-181.444c-13.693 0-24.793 11.1-24.793 24.793v49.535c0 13.693 11.1 24.793 24.793 24.793v0h24.793v132.111h-24.793c-13.693 0-24.793 11.1-24.793 24.793v49.687c0 13.693 11.1 24.793 24.793 24.793v0h132.111c13.693 0 24.793-11.1 24.793-24.793v-206.439h24.793c13.693 0 24.793-11.1 24.793-24.793v0z" />
<glyph unicode="&#xe94b;" glyph-name="icons-info-pending" d="M512 960c-282.77 0-512-229.23-512-512s229.23-512 512-512c282.77 0 512 229.23 512 512v0c-0.058 282.747-229.253 511.942-511.995 512h-0.005zM512 35.071c-228.055 0-412.929 184.875-412.929 412.929s184.875 412.929 412.929 412.929c228.055 0 412.929-184.875 412.929-412.929v0c0-0.075 0-0.164 0-0.253 0-227.915-184.761-412.676-412.676-412.676-0.089 0-0.178 0-0.267 0h0.014zM512 732.866c47.897 0 86.725-38.828 86.725-86.725s-38.828-86.725-86.725-86.725c-47.897 0-86.725 38.828-86.725 86.725 0 0.053 0 0.107 0 0.16v-0.008c0.058 47.853 38.864 86.624 86.725 86.624 0 0 0 0 0 0v0zM627.414 208.52c0-13.693-11.1-24.793-24.793-24.793v0h-181.444c-13.693 0-24.793 11.1-24.793 24.793v49.535c0 13.693 11.1 24.793 24.793 24.793v0h24.793v132.111h-24.793c-13.693 0-24.793 11.1-24.793 24.793v49.687c0 13.693 11.1 24.793 24.793 24.793v0h132.111c13.693 0 24.793-11.1 24.793-24.793v-206.439h24.793c13.693 0 24.793-11.1 24.793-24.793v0z" />
<glyph unicode="&#xe94c;" glyph-name="icons-info-red" d="M512 960c-282.77 0-512-229.23-512-512s229.23-512 512-512c282.77 0 512 229.23 512 512v0c0 282.77-229.23 512-512 512v0zM512 35.072c-228.054 0-412.928 184.874-412.928 412.928s184.874 412.928 412.928 412.928c228.054 0 412.928-184.874 412.928-412.928v0c0-0.076 0-0.166 0-0.256 0-227.912-184.76-412.672-412.672-412.672-0.090 0-0.18 0-0.27 0h0.014zM512 732.928c47.901 0 86.733-38.832 86.733-86.733s-38.832-86.733-86.733-86.733c-47.901 0-86.733 38.832-86.733 86.733v0c0 47.901 38.832 86.733 86.733 86.733v0zM627.61 208.538c0-13.686-11.095-24.781-24.781-24.781h-181.658c-13.686 0-24.781 11.095-24.781 24.781v0 49.51c0 13.686 11.095 24.781 24.781 24.781v0h24.781v132.147h-24.781c-13.686 0-24.781 11.095-24.781 24.781v0 49.51c0 13.686 11.095 24.781 24.781 24.781v0h132.147c13.686 0 24.781-11.095 24.781-24.781v0-206.438h24.781c13.686 0 24.781-11.095 24.781-24.781v0z" />
<glyph unicode="&#xe94d;" glyph-name="icons-left-arrow" d="M588.644 891.355l-50.741 52.071c-9.783 10.189-23.518 16.519-38.732 16.519s-28.948-6.33-38.714-16.501l-0.017-0.018-444.264-455.608c-9.97-10.265-16.117-24.29-16.117-39.751s6.147-29.486 16.131-39.765l-0.013 0.014 444.264-455.786c9.783-10.189 23.518-16.519 38.732-16.519s28.948 6.33 38.714 16.501l0.017 0.018 50.741 52.071c9.843 10.317 15.9 24.321 15.9 39.739 0 15.887-6.431 30.272-16.832 40.695l0.001-0.001-275.377 269.128h656.845c30.372 0.322 54.869 25.018 54.869 55.436 0 0.297-0.002 0.594-0.007 0.89l0.001-0.045v75.026c0.004 0.251 0.006 0.548 0.006 0.845 0 30.418-24.497 55.114-54.839 55.436h-656.876l275.377 269.173c10.556 10.345 17.1 24.75 17.1 40.683 0 15.47-6.169 29.499-16.18 39.762l0.011-0.012z" />
<glyph unicode="&#xe94e;" glyph-name="icons-location-Filled" d="M517.882 960c-207.008-0.244-374.754-167.991-374.998-374.975v-0.024c0-256.619 335.586-633.332 349.875-649.24 6.208-6.892 15.162-11.205 25.124-11.205s18.916 4.314 25.097 11.175l0.027 0.030c14.288 15.908 349.875 392.621 349.875 649.24-0.244 207.008-167.991 374.754-374.975 374.998h-0.024zM517.882 396.348c-104.204 0-188.678 84.474-188.678 188.678s84.474 188.678 188.678 188.678c104.204 0 188.678-84.474 188.678-188.678v0c-0.122-104.155-84.523-188.556-188.667-188.678h-0.011z" />
<glyph unicode="&#xe94f;" glyph-name="icons-location-outlined" d="M517.882 960c-207.008-0.244-374.754-167.991-374.998-374.975v-0.024c0-256.619 335.586-633.332 349.875-649.24 6.208-6.892 15.162-11.205 25.124-11.205s18.916 4.314 25.097 11.175l0.027 0.030c14.288 15.908 349.875 392.621 349.875 649.24-0.244 207.008-167.991 374.754-374.975 374.998h-0.024zM517.882 10.038c-112.95 134.168-307.462 398.836-307.462 574.964 0 169.807 137.655 307.462 307.462 307.462s307.462-137.655 307.462-307.462v0c0-176.128-194.489-440.749-307.462-574.964zM517.882 773.68c-104.204 0-188.678-84.474-188.678-188.678s84.474-188.678 188.678-188.678c104.204 0 188.678 84.474 188.678 188.678v0c-0.122 104.155-84.523 188.556-188.667 188.678h-0.011zM517.882 463.86c-66.905 0-121.142 54.237-121.142 121.142s54.237 121.142 121.142 121.142c66.905 0 121.142-54.237 121.142-121.142v0c-0.081-66.872-54.27-121.060-121.134-121.142h-0.008z" />
<glyph unicode="&#xe950;" glyph-name="icons-pending" d="M512-64c-0.020 0-0.043 0-0.066 0-72.125 0-135.656 36.797-172.842 92.643l-0.476 0.761c-12.486-2.668-26.832-4.196-41.535-4.196-114.704 0-207.689 92.986-207.689 207.689 0 14.703 1.528 29.048 4.433 42.887l-0.238-1.352c-56.613 37.694-93.412 101.252-93.412 173.403s36.799 135.709 92.652 172.927l0.76 0.477c-2.668 12.486-4.196 26.832-4.196 41.535 0 114.704 92.986 207.689 207.689 207.689 14.703 0 29.048-1.528 42.887-4.433l-1.352 0.238c37.694 56.613 101.252 93.412 173.403 93.412s135.709-36.799 172.927-92.652l0.477-0.76c12.486 2.668 26.832 4.196 41.535 4.196 114.704 0 207.689-92.986 207.689-207.689 0-14.703-1.528-29.048-4.433-42.887l0.238 1.352c56.613-37.694 93.412-101.252 93.412-173.403s-36.799-135.709-92.652-172.927l-0.76-0.477c2.668-12.486 4.196-26.832 4.196-41.535 0-114.704-92.986-207.689-207.689-207.689-14.703 0-29.048 1.528-42.887 4.433l1.352-0.238c-37.703-56.609-101.263-93.403-173.417-93.403-0.002 0-0.003 0-0.005 0v0zM389.595 152.393c12.983-34.816 31.817-120.393 122.405-120.393 87.771 0 107.008 79.214 122.405 120.393 61.001-27.611 115.602-54.601 171.593 1.39 62.171 62.171 19.602 131.657 1.39 171.593 34.816 12.983 120.393 31.817 120.393 122.405 0 87.771-79.214 107.008-120.393 122.405 15.397 33.792 62.61 107.593-1.39 171.593-62.171 62.171-131.657 19.602-171.593 1.39-12.983 35.218-31.817 120.686-122.405 120.686-87.771 0-107.008-79.214-122.405-120.393-33.792 15.397-107.593 62.61-171.593-1.39-62.171-62.171-19.602-131.657-1.39-171.593-34.999-13.202-120.686-32-120.686-122.587 0-87.771 79.214-107.008 120.393-122.405-15.397-33.792-62.61-107.593 1.39-171.593 62.098-61.879 129.719-20.699 171.886-1.499zM666.039 632.832c12.195 0.343 21.95 10.31 21.95 22.556 0 0.196-0.002 0.391-0.007 0.586l0.001-0.029v15.397c0.004 0.166 0.007 0.361 0.007 0.557 0 12.246-9.755 22.213-21.918 22.555l-0.032 0.001h-308.151c-12.195-0.343-21.95-10.31-21.95-22.556 0-0.196 0.002-0.391 0.007-0.586l-0.001 0.029v-15.397c-0.004-0.166-0.007-0.361-0.007-0.557 0-12.246 9.755-22.213 21.918-22.555l0.032-0.001c-0.2-3.277-0.314-7.108-0.314-10.966 0-76.624 44.97-142.744 109.958-173.407l1.168-0.495c-66.154-31.159-111.123-97.279-111.123-173.901 0-3.845 0.113-7.664 0.337-11.453l-0.025 0.522c-12.195-0.343-21.95-10.31-21.95-22.556 0-0.196 0.002-0.391 0.007-0.586l-0.001 0.029v-15.397c-0.004-0.166-0.007-0.361-0.007-0.557 0-12.246 9.755-22.213 21.918-22.555l0.032-0.001h308.078c12.195 0.343 21.95 10.31 21.95 22.556 0 0.196-0.002 0.391-0.007 0.586l0.001-0.029v15.397c0.004 0.166 0.007 0.361 0.007 0.557 0 12.246-9.755 22.213-21.918 22.555l-0.032 0.001c0.204 3.307 0.32 7.173 0.32 11.065 0 76.541-44.873 142.601-109.747 173.307l-1.165 0.496c66.076 31.189 110.981 97.268 110.981 173.835 0 3.868-0.115 7.71-0.341 11.522l0.025-0.525zM607.525 263.131h-190.903c0 74.569 42.386 138.752 95.378 138.752s95.342-64.146 95.342-138.752zM512 494.19c-52.992 0-95.378 64.037-95.378 138.642h190.72c0-74.569-42.35-138.642-95.342-138.642z" />
<glyph unicode="&#xe951;" glyph-name="icons-rejected" d="M512-64c-0.020 0-0.043 0-0.066 0-72.125 0-135.656 36.797-172.842 92.643l-0.476 0.761c-12.486-2.668-26.832-4.196-41.535-4.196-114.704 0-207.689 92.986-207.689 207.689 0 14.703 1.528 29.048 4.433 42.887l-0.238-1.352c-56.613 37.694-93.412 101.252-93.412 173.403s36.799 135.709 92.652 172.927l0.76 0.477c-2.668 12.486-4.196 26.832-4.196 41.535 0 114.704 92.986 207.689 207.689 207.689 14.703 0 29.048-1.528 42.887-4.433l-1.352 0.238c37.694 56.613 101.252 93.412 173.403 93.412s135.709-36.799 172.927-92.652l0.477-0.76c12.486 2.668 26.832 4.196 41.535 4.196 114.704 0 207.689-92.986 207.689-207.689 0-14.703-1.528-29.048-4.433-42.887l0.238 1.352c56.613-37.694 93.412-101.252 93.412-173.403s-36.799-135.709-92.652-172.927l-0.76-0.477c2.668-12.486 4.196-26.832 4.196-41.535 0-114.704-92.986-207.689-207.689-207.689-14.703 0-29.048 1.528-42.887 4.433l1.352-0.238c-37.703-56.609-101.263-93.403-173.417-93.403-0.002 0-0.003 0-0.005 0v0zM389.595 152.393c12.983-34.816 31.817-120.393 122.405-120.393 87.771 0 107.008 79.214 122.405 120.393 61.001-27.611 115.602-54.601 171.593 1.39 62.171 62.171 19.602 131.657 1.39 171.593 34.816 12.983 120.393 31.817 120.393 122.405 0 87.771-79.214 107.008-120.393 122.405 15.397 33.792 62.61 107.593-1.39 171.593-62.171 62.171-131.657 19.602-171.593 1.39-12.983 35.218-31.817 120.686-122.405 120.686-87.771 0-107.008-79.214-122.405-120.393-33.792 15.397-107.593 62.61-171.593-1.39-62.171-62.171-19.602-131.657-1.39-171.593-34.999-13.202-120.686-32-120.686-122.587 0-87.771 79.214-107.008 120.393-122.405-15.397-33.792-62.61-107.593 1.39-171.593 62.098-61.879 129.719-20.699 171.886-1.499zM682.167 315.611l-37.778-37.778c-3.634-3.64-8.658-5.892-14.208-5.892s-10.574 2.252-14.208 5.891v0l-103.973 103.973-103.973-103.973c-3.634-3.64-8.658-5.892-14.208-5.892s-10.574 2.252-14.208 5.891v0l-37.778 37.778c-3.64 3.634-5.892 8.658-5.892 14.208s2.252 10.574 5.891 14.208v0l103.826 103.973-103.826 103.973c-3.64 3.634-5.892 8.658-5.892 14.208s2.252 10.574 5.891 14.208v0l37.778 37.778c3.634 3.64 8.658 5.892 14.208 5.892s10.574-2.252 14.208-5.891v0l103.973-103.826 103.973 103.973c3.634 3.64 8.658 5.892 14.208 5.892s10.574-2.252 14.208-5.891v0l37.778-37.778c3.64-3.634 5.892-8.658 5.892-14.208s-2.252-10.574-5.891-14.208v0l-103.973-104.119 103.973-103.973c3.64-3.634 5.892-8.658 5.892-14.208s-2.252-10.574-5.891-14.208v0z" />
<glyph unicode="&#xe952;" glyph-name="icons-reload-Filled" d="M985.125 408.869l-167.863-167.753c-13.502-13.543-32.177-21.922-52.809-21.922s-39.307 8.379-52.807 21.92l-0.002 0.002-167.497 167.753c-13.515 13.515-21.874 32.186-21.874 52.809 0 41.247 33.437 74.683 74.683 74.683 20.623 0 39.294-8.359 52.809-21.874l45.568-45.568c-12.205 140.745-129.468 250.368-272.335 250.368-150.938 0-273.298-122.36-273.298-273.298 0-150.895 122.29-273.228 273.169-273.298h0.007c41.183 0 74.569-33.386 74.569-74.569s-33.386-74.569-74.569-74.569v0c-0.098 0-0.215 0-0.331 0-233.346 0-422.51 189.164-422.51 422.51s189.164 422.51 422.51 422.51c221.955 0 403.936-171.147 421.174-388.67l0.094-1.474 35.84 35.913c13.515 13.515 32.186 21.874 52.809 21.874 41.247 0 74.683-33.437 74.683-74.683 0-20.623-8.359-39.294-21.874-52.809v0z" />
<glyph unicode="&#xe953;" glyph-name="icons-right-arrow" d="M435.356 4.645l50.741-52.071c9.783-10.189 23.518-16.519 38.732-16.519s28.948 6.33 38.714 16.501l0.017 0.018 444.264 455.608c9.97 10.265 16.117 24.29 16.117 39.751s-6.147 29.486-16.131 39.765l0.013-0.014-444.264 455.786c-9.783 10.189-23.518 16.519-38.732 16.519s-28.948-6.33-38.714-16.501l-0.017-0.018-50.741-52.071c-9.843-10.317-15.9-24.321-15.9-39.739 0-15.887 6.431-30.272 16.832-40.695l-0.001 0.001 275.377-269.128h-656.845c-30.372-0.322-54.869-25.018-54.869-55.436 0-0.297 0.002-0.594 0.007-0.89l-0.001 0.045v-75.026c-0.004-0.251-0.006-0.548-0.006-0.845 0-30.418 24.497-55.114 54.839-55.436h656.876l-275.377-269.173c-10.556-10.345-17.1-24.75-17.1-40.683 0-15.47 6.169-29.499 16.18-39.762l-0.011 0.012z" />
<glyph unicode="&#xe954;" glyph-name="icons-search" d="M1000.556 27.298l-243.712 253.305c60.113 71.29 96.645 164.175 96.645 265.593 0 228.24-185.025 413.265-413.265 413.265s-413.265-185.025-413.265-413.265c0-228.24 185.025-413.265 413.265-413.265 0.052 0 0.105 0 0.157 0h-0.008c0.32-0.001 0.698-0.001 1.077-0.001 88.359 0 170.173 28.018 237.044 75.655l-1.253-0.848 245.544-255.407c9.824-10.203 23.601-16.54 38.858-16.54 29.777 0 53.916 24.139 53.916 53.916 0 14.52-5.74 27.699-15.074 37.393l0.016-0.017zM440.374 852.211c168.769 0 305.583-136.814 305.583-305.583s-136.814-305.583-305.583-305.583c-168.769 0-305.583 136.814-305.583 305.583v0c0.184 168.695 136.888 305.399 305.565 305.583h0.018z" />
<glyph unicode="&#xe955;" glyph-name="icons-select" d="M415.19 256.844l-174.080 175.187c-4.846 4.885-7.841 11.613-7.841 19.041s2.995 14.156 7.843 19.043l-0.002-0.002 37.888 37.999c4.836 4.875 11.537 7.893 18.944 7.893s14.108-3.018 18.942-7.892l0.002-0.002 117.262-117.954 251.184 252.624c4.836 4.875 11.537 7.893 18.944 7.893s14.108-3.018 18.942-7.892l0.002-0.002 37.888-38.082c4.846-4.885 7.841-11.613 7.841-19.041s-2.995-14.156-7.843-19.043l0.002 0.002-308.030-309.774c-4.836-4.875-11.537-7.893-18.944-7.893s-14.108 3.018-18.942 7.892l-0.002 0.002z" />
<glyph unicode="&#xe956;" glyph-name="icons-show-password" d="M47.912 412.807c0.073 0 0.16-0.001 0.247-0.001 15.209 0 28.742 7.175 37.399 18.325l0.080 0.107c101.707 132.753 260.308 217.504 438.703 217.504s336.996-84.752 437.734-216.188l0.969-1.317c8.747-11.258 22.289-18.433 37.506-18.433 0.078 0 0.155 0 0.233 0.001h-0.012c26.353 0.143 47.661 21.539 47.661 47.912 0 11.045-3.737 21.217-10.017 29.321l0.082-0.11c-119.356 155.369-305.217 254.526-514.237 254.526s-394.88-99.157-513.108-252.997l-1.129-1.529c-6.198-7.994-9.935-18.166-9.935-29.212 0-26.373 21.308-47.769 47.648-47.912h0.014zM530.27 686.538c-144.064 0-260.851-116.787-260.851-260.851s116.787-260.851 260.851-260.851c144.064 0 260.851 116.787 260.851 260.851v0c-0.153 144.002-116.848 260.697-260.836 260.851h-0.015zM661.666 425.688c0-72.568-58.828-131.395-131.395-131.395s-131.395 58.828-131.395 131.395c0 72.568 58.828 131.395 131.395 131.395v0c72.587-0.092 131.395-58.957 131.395-131.557 0-0.019 0-0.038 0-0.057v0.003z" />
<glyph unicode="&#xe957;" d="M1024 448c0-282.77-229.23-512-512-512s-512 229.23-512 512c0 282.77 229.23 512 512 512s512-229.23 512-512z" />
<glyph unicode="&#xe958;" d="M406.648 239.977l-189.44 190.645c-5.274 5.316-8.533 12.638-8.533 20.721s3.259 15.405 8.535 20.723l-0.002-0.002 41.231 41.352c5.262 5.305 12.555 8.59 20.616 8.59s15.353-3.284 20.614-8.588l0.002-0.002 127.608-128.361 273.348 274.914c5.262 5.305 12.555 8.59 20.616 8.59s15.353-3.284 20.614-8.588l0.002-0.002 41.231-41.442c5.274-5.316 8.533-12.638 8.533-20.721s-3.259-15.405-8.535-20.723l0.002 0.002-335.209-337.107c-5.262-5.305-12.555-8.59-20.616-8.59s-15.353 3.284-20.614 8.588l-0.002 0.002z" />
<glyph unicode="&#xe959;" glyph-name="icons-total-01" d="M372.364 820.364h279.273c205.651 0 372.364-166.713 372.364-372.364s-166.713-372.364-372.364-372.364h-279.273c-205.651 0-372.364 166.713-372.364 372.364s166.713 372.364 372.364 372.364z" />
<glyph unicode="&#xe95a;" glyph-name="icons-total-02" d="M372.364 820.364h279.273c205.651 0 372.364-166.713 372.364-372.364s-166.713-372.364-372.364-372.364h-279.273c-205.651 0-372.364 166.713-372.364 372.364s166.713 372.364 372.364 372.364z" />
<glyph unicode="&#xe95b;" glyph-name="icons-total-03" d="M315.077 782.769h393.846c174.012 0 315.077-141.065 315.077-315.077s-141.065-315.077-315.077-315.077h-393.846c-174.012 0-315.077 141.065-315.077 315.077s141.065 315.077 315.077 315.077z" />
<glyph unicode="&#xe95c;" glyph-name="icons-warning" d="M512 960c-282.77 0-512-229.23-512-512s229.23-512 512-512c282.77 0 512 229.23 512 512v0c0 0.085 0 0.187 0 0.288 0 282.611-229.101 511.712-511.712 511.712-0.101 0-0.202 0-0.303 0h0.015zM512 16c-238.587 0-432 193.413-432 432s193.413 432 432 432c238.587 0 432-193.413 432-432v0c0-0.076 0-0.166 0-0.256 0-238.446-193.298-431.744-431.744-431.744-0.090 0-0.18 0-0.27 0h0.014zM512 716.512c-24.583 0-44.512-19.929-44.512-44.512v0-286.56c-0.010-0.355-0.016-0.774-0.016-1.193 0-24.583 19.929-44.512 44.512-44.512s44.512 19.929 44.512 44.512c0 0.42-0.006 0.838-0.017 1.255l0.001-0.061v286.56c0 24.572-19.91 44.494-44.478 44.512h-0.002zM572.064 264.16c0-33.172-26.892-60.064-60.064-60.064s-60.064 26.892-60.064 60.064c0 33.172 26.892 60.064 60.064 60.064s60.064-26.892 60.064-60.064z" />
<glyph unicode="&#xe95d;" glyph-name="notifications-bell-button" d="M497.979-26.348c54.394 0.179 98.441 44.225 98.619 98.602v0.017h-196.923c0.177-54.284 44.045-98.263 98.27-98.619h0.034zM818.57 269.588v271.202c0.002 0.388 0.003 0.846 0.003 1.305 0 150.166-104.295 275.972-244.4 308.934l-2.15 0.426v34.58c0 40.849-33.115 73.964-73.964 73.964s-73.964-33.115-73.964-73.964v0-34.501c-142.413-33.27-246.865-159.153-246.865-309.433 0-0.461 0.001-0.922 0.003-1.383v0.071-271.202l-98.462-98.619v-49.31h838.341v49.31zM719.951 220.278h-443.943v320.512c0 122.57 99.362 221.932 221.932 221.932s221.932-99.362 221.932-221.932v0z" />
<glyph unicode="&#xe95e;" glyph-name="phone-1" d="M941.852 287.853c-0.301-0.001-0.658-0.001-1.015-0.001-64.926 0-127.367 10.641-185.673 30.273l4.101-1.198c-7.65 2.553-16.459 4.026-25.611 4.026-21.362 0-40.85-8.025-55.614-21.225l0.081 0.071-115.135-86.906c-124.516 62.883-223.219 161.551-284.477 282.41l-1.668 3.629 84.369 112.174c15.011 14.986 24.298 35.702 24.298 58.587 0 9.023-1.443 17.708-4.112 25.838l0.166-0.585c-18.501 54.338-29.181 116.932-29.181 182.020 0 0.311 0 0.622 0.001 0.932v-0.048c-0.060 45.345-36.803 82.088-82.143 82.148h-188.091c-45.345-0.060-82.088-36.803-82.148-82.143v-0.006c0.601-519.928 421.923-941.25 941.794-941.852h0.058c45.345 0.060 82.088 36.803 82.148 82.143v187.562c-0.060 45.345-36.803 82.088-82.143 82.148h-0.006z" />
<glyph unicode="&#xe95f;" glyph-name="Training" d="M64 64v768c0.065 35.32 28.68 63.935 63.994 64h640.006c35.333-0.032 63.968-28.667 64-63.997v-376.266l63.943 63.943v312.32c0 70.672-57.275 127.968-127.94 128h-640.003c-70.692 0-128-57.308-128-128v0-768c0-70.692 57.308-128 128-128v0h351.972v64h-351.972c-35.32 0.065-63.935 28.68-64 63.994v0.006zM704 768h-512v-64h512zM704 640h-512v-64h512zM704 512h-512v-64h512zM192 320h256v64h-256zM1005.511 384l-45.511 45.511c-11.573 11.579-27.563 18.741-45.227 18.741s-33.654-7.162-45.226-18.74l-274.717-274.717c-21.428-21.438-38.616-47.117-50.196-75.668l-0.549-1.53-32.085-141.596 141.255 31.972c29.896 17.276 55.121 34.045 79.257 52.185l-2.002-1.44 274.716 274.716c11.596 11.575 18.769 27.578 18.769 45.255s-7.173 33.68-18.768 45.254l-0.001 0.001zM708.21 41.415c-9.119-7.194-19.385-14.344-30.066-20.882l-1.394-0.793-82.887 82.887c7.753 10.857 15.556 20.375 23.933 29.35l-0.153-0.166 206.848 206.848 90.51-90.396z" />
<glyph unicode="&#xe960;" glyph-name="website" horiz-adv-x="1020" d="M707.697 416.005h-394.923c-0.001 0-0.002 0-0.003 0-5.518 0-9.991-4.473-9.991-9.991 0-0.084 0.001-0.167 0.003-0.25v0.012c1.189-46.308 4.322-90.514 9.119-132.341 0.566-5.031 4.796-8.905 9.932-8.905 0.866 0 1.706 0.11 2.507 0.317l-0.069-0.015c55.834 14.705 119.932 23.149 186.003 23.149s130.171-8.444 191.278-24.312l-5.274 1.163c0.732-0.192 1.572-0.302 2.438-0.302 5.135 0 9.366 3.875 9.928 8.86l0.004 0.046c4.758 41.827 7.929 86.034 9.119 132.341 0.002 0.071 0.003 0.154 0.003 0.238 0 5.518-4.473 9.991-9.991 9.991-0.029 0-0.058 0-0.087 0h0.004zM708.609 622.565c-0.566 5.031-4.796 8.905-9.932 8.905-0.866 0-1.706-0.11-2.507-0.317l0.069 0.015c-55.833-14.706-119.932-23.15-186.003-23.15s-130.17 8.444-191.277 24.313l5.273-1.163c-0.732 0.192-1.572 0.302-2.438 0.302-5.135 0-9.366-3.875-9.928-8.86l-0.004-0.046c-4.758-41.827-7.929-86.034-9.119-132.341-0.002-0.071-0.003-0.154-0.003-0.238 0-5.518 4.473-9.991 9.991-9.991 0.001 0 0.002 0 0.003 0h394.923c0.001 0 0.002 0 0.003 0 5.518 0 9.991 4.473 9.991 9.991 0 0.084-0.001 0.167-0.003 0.25v-0.012c-1.308 46.308-4.282 90.514-9.039 132.341zM696.239 706.974c-14.309 89.011-41.225 168.99-79.171 242.34l2.097-4.458c-1.408 2.525-3.817 4.348-6.675 4.945l-0.065 0.011c-30.711 6.466-65.998 10.167-102.15 10.167s-71.44-3.702-105.505-10.748l3.355 0.58c-2.923-0.608-5.332-2.431-6.714-4.905l-0.026-0.050c-35.848-68.892-62.765-148.87-76.458-233.284l-0.615-4.598c-0.102-0.534-0.16-1.149-0.16-1.777 0-4.566 3.074-8.413 7.266-9.585l0.070-0.017c53.473-14.955 114.877-23.55 178.289-23.55 0.182 0 0.365 0 0.547 0h-0.029c0.113 0 0.248 0 0.382 0 63.462 0 124.913 8.61 183.248 24.727l-4.823-1.137c4.239 1.204 7.291 5.040 7.291 9.589 0 0.618-0.056 1.224-0.164 1.811l0.009-0.061zM723.080 913.93c-1.206 0.557-2.616 0.881-4.103 0.881-5.518 0-9.991-4.473-9.991-9.991 0-1.316 0.255-2.573 0.717-3.724l-0.024 0.067v-0.436c18.7-47.954 35.007-105.063 46.128-164.004l0.973-6.2c0.92-4.644 4.962-8.097 9.81-8.097 1.381 0 2.697 0.28 3.894 0.787l-0.066-0.025c43.233 17.917 80.138 37.592 114.859 60.326l-2.619-1.609c2.782 1.814 4.594 4.91 4.594 8.43 0 2.625-1.008 5.014-2.658 6.801l0.006-0.007q-6.106 6.542-12.449 12.925c-42.034 42.167-91.36 77.035-145.931 102.555l-3.141 1.32zM791.709 479.995h218.772c5.538 0.003 10.026 4.493 10.026 10.031 0 0.293-0.013 0.583-0.037 0.87l0.003-0.037c-7.451 89.557-37.106 170.924-83.388 240.244l1.16-1.847c-1.819 2.749-4.897 4.538-8.393 4.538-2.073 0-3.999-0.629-5.598-1.706l0.036 0.023c-34.755-23.323-74.62-45.070-116.457-63.115l-4.862-1.866q-13.123-5.551-26.365-10.546c-3.83-1.456-6.503-5.097-6.503-9.362 0-0.445 0.029-0.884 0.086-1.314l-0.005 0.051c6.304-50.193 10.189-102.567 11.537-156.169 0.111-5.432 4.541-9.793 9.989-9.793 0.001 0 0.001 0 0.002 0v0zM324.232 189.026c14.309-89.011 41.225-168.99 79.171-242.34l-2.097 4.458c1.408-2.525 3.817-4.348 6.675-4.945l0.065-0.011c30.711-6.466 65.998-10.167 102.15-10.167s71.44 3.702 105.505 10.748l-3.355-0.58c2.923 0.608 5.332 2.431 6.714 4.905l0.026 0.050c35.848 68.892 62.765 148.87 76.458 233.284l0.615 4.598c0.102 0.534 0.16 1.149 0.16 1.777 0 4.566-3.074 8.413-7.266 9.585l-0.070 0.017c-53.63 14.966-115.214 23.567-178.807 23.567s-125.179-8.602-183.654-24.706l4.847 1.138c-4.242-1.201-7.298-5.039-7.298-9.591 0-0.632 0.059-1.25 0.171-1.849l-0.010 0.062zM217.503 228.911q13.123 5.551 26.365 10.546c3.83 1.456 6.503 5.097 6.503 9.362 0 0.445-0.029 0.884-0.086 1.314l0.005-0.051c-6.304 50.193-10.189 102.567-11.537 156.169-0.111 5.432-4.541 9.793-9.989 9.793-0.001 0-0.001 0-0.002 0h-218.771c-5.538-0.003-10.026-4.493-10.026-10.031 0-0.293 0.013-0.583 0.037-0.87l-0.003 0.037c7.451-89.557 37.106-170.924 83.388-240.244l-1.16 1.847c1.819-2.749 4.897-4.538 8.393-4.538 2.073 0 3.999 0.629 5.598 1.706l-0.036-0.023c34.755 23.323 74.62 45.070 116.457 63.115l4.862 1.866zM882.817 114.133c-32.103 21.126-69.007 40.801-107.713 57.033l-4.527 1.684c-1.131 0.482-2.447 0.763-3.829 0.763-4.848 0-8.89-3.453-9.799-8.034l-0.011-0.064c-12.091-65.14-28.399-122.249-49.401-177.033l2.301 6.829v-0.436c-0.439-1.084-0.693-2.34-0.693-3.657 0-5.518 4.473-9.991 9.991-9.991 1.486 0 2.897 0.325 4.165 0.907l-0.062-0.026c57.776 26.838 107.156 61.721 149.219 103.903l0.012 0.012q6.344 6.344 12.449 12.925c1.595 1.769 2.571 4.123 2.571 6.705 0 3.552-1.846 6.673-4.632 8.455l-0.040 0.024zM781.718 406.252c-1.348-53.603-5.233-105.976-11.537-156.169-0.051-0.379-0.080-0.818-0.080-1.263 0-4.265 2.673-7.906 6.434-9.339l0.069-0.023q13.242-5.035 26.365-10.546c46.701-19.915 86.566-41.662 124.049-66.697l-2.73 1.716c1.563-1.055 3.489-1.684 5.562-1.684 3.496 0 6.575 1.789 8.37 4.501l0.023 0.037c45.122 67.473 74.777 148.84 82.104 236.552l0.124 1.845c0.018 0.225 0.028 0.488 0.028 0.753 0 5.536-4.484 10.024-10.019 10.031h-218.772c-0.001 0-0.003 0-0.004 0-5.42 0-9.832-4.316-9.987-9.699v-0.014zM137.694 781.906c32.098-21.098 69.004-40.747 107.709-56.955l4.531-1.683c1.131-0.482 2.447-0.763 3.829-0.763 4.848 0 8.89 3.453 9.799 8.034l0.011 0.064c12.097 65.114 28.404 122.195 49.401 176.953l-2.301-6.828v0.436c0.439 1.084 0.693 2.34 0.693 3.657 0 5.518-4.473 9.991-9.991 9.991-1.486 0-2.897-0.325-4.165-0.907l0.062 0.026c-57.742-26.836-107.095-61.704-149.14-103.863l-0.011-0.011q-6.344-6.344-12.449-12.925c-1.626-1.777-2.622-4.153-2.622-6.763 0-3.541 1.834-6.653 4.605-8.438l0.040-0.024zM238.635 479.995c1.157 59.804 5.445 117.275 12.723 173.809l-0.829-7.886c0.051 0.379 0.080 0.818 0.080 1.263 0 4.265-2.673 7.906-6.434 9.339l-0.069 0.023q-13.242 5.035-26.365 10.546c-46.701 19.914-86.566 41.661-124.048 66.696l2.728-1.715c-1.563 1.055-3.489 1.684-5.562 1.684-3.496 0-6.575-1.789-8.37-4.501l-0.023-0.037c-45.122-67.473-74.777-148.84-82.104-236.552l-0.124-1.845c-0.022-0.249-0.035-0.54-0.035-0.833 0-5.538 4.488-10.028 10.025-10.031v0zM297.431-17.93c1.206-0.557 2.616-0.881 4.103-0.881 5.518 0 9.991 4.473 9.991 9.991 0 1.316-0.255 2.573-0.717 3.724l0.024-0.067v0.436c-18.7 47.953-35.008 105.062-46.128 164.003l-0.973 6.201c-0.92 4.644-4.962 8.097-9.81 8.097-1.381 0-2.697-0.28-3.894-0.787l0.066 0.025c-43.234-17.918-80.138-37.593-114.86-60.327l2.619 1.609c-2.782-1.814-4.594-4.91-4.594-8.43 0-2.625 1.008-5.014 2.658-6.801l-0.006 0.007q6.106-6.542 12.449-12.925c42.033-42.168 91.359-77.035 145.931-102.555l3.141-1.319z" />
<glyph unicode="&#xe961;" glyph-name="apps" d="M384 477.013h-213.333c-45.382 0.241-82.106 36.965-82.347 82.324v213.356c0.241 45.382 36.965 82.106 82.324 82.347h213.356c45.382-0.241 82.106-36.965 82.347-82.324v-213.356c-0.241-45.382-36.965-82.106-82.324-82.347h-0.023zM170.667 791.040c-10.038-0.233-18.114-8.309-18.346-18.325v-213.355c0-10.133 8.214-18.347 18.347-18.347v0h213.333c10.133 0 18.347 8.214 18.347 18.347v0 213.333c0 10.133-8.214 18.347-18.347 18.347v0zM840.533 477.013h-213.333c-45.382 0.241-82.106 36.965-82.347 82.324v213.356c0.241 45.382 36.965 82.106 82.324 82.347h213.356c45.382-0.241 82.106-36.965 82.347-82.324v-213.356c-0.241-45.382-36.965-82.106-82.324-82.347h-0.023zM627.2 791.040c-10.133 0-18.347-8.214-18.347-18.347v0-213.333c0-10.133 8.214-18.347 18.347-18.347v0h213.333c10.133 0 18.347 8.214 18.347 18.347v0 213.333c-0.233 10.038-8.309 18.114-18.325 18.346h-0.022zM384 35.84h-213.333c-45.382 0.241-82.106 36.965-82.347 82.324v213.356c0.241 45.382 36.965 82.106 82.324 82.347h213.356c45.382-0.241 82.106-36.965 82.347-82.324v-213.356c-0.241-45.382-36.965-82.106-82.324-82.347h-0.023zM170.667 349.867c-10.133 0-18.347-8.214-18.347-18.347v0-213.333c0.233-10.038 8.309-18.114 18.325-18.346h213.355c10.133 0 18.347 8.214 18.347 18.347v0 213.333c0 10.133-8.214 18.347-18.347 18.347v0zM840.533 35.84h-213.333c-45.382 0.241-82.106 36.965-82.347 82.324v213.356c0.241 45.382 36.965 82.106 82.324 82.347h213.356c45.382-0.241 82.106-36.965 82.347-82.324v-213.356c-0.241-45.382-36.965-82.106-82.324-82.347h-0.023zM627.2 349.867c-10.133 0-18.347-8.214-18.347-18.347v0-213.333c0-10.133 8.214-18.347 18.347-18.347v0h213.333c10.038 0.233 18.114 8.309 18.346 18.325v213.355c0 10.133-8.214 18.347-18.347 18.347v0z" />
<glyph unicode="&#xe962;" glyph-name="archive" d="M676.267 92.587h-341.333c-88.366 0-160 71.634-160 160v0 256c0 88.366 71.634 160 160 160v0h341.333c88.366 0 160-71.634 160-160v0-256c0-88.366-71.634-160-160-160v0zM334.933 604.587c-53.019 0-96-42.981-96-96v0-256c0-53.019 42.981-96 96-96v0h341.333c53.019 0 96 42.981 96 96v0 256c0 53.019-42.981 96-96 96v0zM761.6 732.587h-512c-17.673 0-32 14.327-32 32s14.327 32 32 32v0h512c17.673 0 32-14.327 32-32s-14.327-32-32-32v0zM548.267 476.587h-85.333c-17.673 0-32 14.327-32 32s14.327 32 32 32v0h85.333c17.673 0 32-14.327 32-32s-14.327-32-32-32v0z" />
<glyph unicode="&#xe963;" glyph-name="archive-open" d="M682.667 28.587h-341.333c-88.366 0-160 71.634-160 160v0 256c0 88.366 71.634 160 160 160v0h341.333c88.366 0 160-71.634 160-160v0-256c0-88.366-71.634-160-160-160v0zM341.333 540.587c-53.019 0-96-42.981-96-96v0-256c0-53.019 42.981-96 96-96v0h341.333c53.019 0 96 42.981 96 96v0 256c0 53.019-42.981 96-96 96v0zM256 668.587c-0.103-0.001-0.225-0.002-0.347-0.002-17.673 0-32 14.327-32 32 0 15.072 10.42 27.71 24.449 31.104l0.219 0.045 512 128c2.13 0.504 4.575 0.793 7.088 0.793 17.72 0 32.085-14.365 32.085-32.085 0-14.779-9.992-27.224-23.589-30.948l-0.225-0.053-512-128zM554.667 412.587h-85.333c-17.673 0-32 14.327-32 32s14.327 32 32 32v0h85.333c17.673 0 32-14.327 32-32s-14.327-32-32-32v0z" />
<glyph unicode="&#xe964;" glyph-name="arrow-45" d="M237.653 140.8c-0.644-0.045-1.396-0.071-2.154-0.071-8.554 0-16.344 3.269-22.19 8.626l0.024-0.022c-5.782 5.789-9.359 13.784-9.359 22.613s3.576 16.824 9.359 22.614v0l506.453 509.44c5.789 5.782 13.784 9.359 22.613 9.359s16.824-3.576 22.614-9.359v0c5.708-5.902 9.225-13.954 9.225-22.827s-3.517-16.924-9.234-22.836l0.009 0.009-504.747-509.013c-5.633-5.296-13.239-8.549-21.605-8.549-0.355 0-0.708 0.006-1.060 0.017l0.051-0.001zM786.347 395.093c-17.577 0.237-31.763 14.423-32 31.977v264.13h-264.96c-17.673 0-32 14.327-32 32s14.327 32 32 32v0h296.107c0.171 0.003 0.372 0.005 0.574 0.005 8.577 0 16.356-3.42 22.046-8.972l-0.006 0.006c5.719-5.832 9.281-13.797 9.386-22.593v-298.687c0-17.673-14.327-32-32-32v0z" />
<glyph unicode="&#xe965;" glyph-name="arrow-block-down" d="M512 32.427c-0.203-0.005-0.443-0.008-0.683-0.008-8.622 0-16.402 3.602-21.919 9.383l-0.011 0.012-341.333 341.333c-5.297 5.693-8.547 13.353-8.547 21.771 0 17.378 13.852 31.521 31.118 31.988l0.043 0.001h140.8v395.093c0.237 17.577 14.423 31.763 31.977 32h341.356c17.577-0.237 31.763-14.423 32-31.977v-394.69h136.107c13.27-0.106 24.607-8.273 29.362-19.84l0.078-0.213c1.652-3.65 2.615-7.914 2.615-12.403 0-8.702-3.618-16.558-9.432-22.148l-341.343-341.343c-5.683-5.542-13.46-8.96-22.035-8.96-0.053 0-0.107 0-0.16 0h0.008zM248.747 373.76l263.253-264.107 263.68 263.68h-90.88c-17.673 0-32 14.327-32 32v0 394.24h-277.333v-394.24c-0.237-17.577-14.423-31.763-31.977-32h-0.023z" />
<glyph unicode="&#xe966;" glyph-name="arrow-block-left" d="M469.333 75.093c-0.203-0.005-0.443-0.008-0.683-0.008-8.622 0-16.402 3.602-21.919 9.383l-0.011 0.012-341.333 341.333c-5.782 5.789-9.359 13.784-9.359 22.613s3.576 16.824 9.359 22.614v0l341.333 341.333c5.744 5.532 13.567 8.94 22.187 8.94 17.666 0 31.989-14.316 32-31.979v-140.801h395.093c17.577-0.237 31.763-14.423 32-31.977v-341.356c-0.237-17.577-14.423-31.763-31.977-32h-395.116v-136.107c0-0.013 0-0.028 0-0.043 0-13.291-8.213-24.665-19.841-29.321l-0.213-0.075c-3.386-1.53-7.332-2.462-11.484-2.559l-0.036-0.001zM173.653 448l263.68-263.68v90.88c0 17.673 14.327 32 32 32v0h394.667v277.333h-394.667c-17.577 0.237-31.763 14.423-32 31.977v95.17z" />
<glyph unicode="&#xe967;" glyph-name="arrow-block-right" d="M554.667 75.093c-1.859-0.287-4.004-0.451-6.187-0.451s-4.328 0.164-6.422 0.48l0.236-0.029c-11.628 4.966-19.629 16.305-19.629 29.512 0 0.125 0.001 0.249 0.002 0.374v-0.019 142.507h-394.667c-16.689 0.4-30.231 13.349-31.566 29.751l-0.008 0.116v341.333c-0.029 0.513-0.045 1.113-0.045 1.717 0 17.625 14.061 31.965 31.577 32.416l0.042 0.001h394.667v136.107c0.016 17.661 14.337 31.972 32 31.972 8.83 0 16.824-3.576 22.614-9.359v0l341.333-341.333c5.782-5.789 9.359-13.784 9.359-22.613s-3.576-16.824-9.359-22.614v0l-341.333-341.333c-5.45-5.301-12.9-8.57-21.114-8.57-0.527 0-1.052 0.013-1.572 0.040l0.073-0.003zM160.427 311.467h394.24c17.577-0.237 31.763-14.423 32-31.977v-95.17l263.68 263.68-263.68 263.253v-92.587c-0.106-8.817-3.668-16.781-9.392-22.619l0.005 0.005c-5.491-4.562-12.613-7.331-20.383-7.331-0.785 0-1.563 0.028-2.334 0.084l0.103-0.006h-394.24z" />
<glyph unicode="&#xe968;" glyph-name="redo2" d="M576 711.628v248.372l384-384-384-384v253.824c-446.75 10.482-427.588-303.792-313.86-509.824-280.712 303.414-221.1 789.57 313.86 775.628z" />
</font>
</defs>
</svg>
