<?xml version="1.0" encoding="UTF-8"?>
<svg width="37px" height="37px" viewBox="0 0 37 37" version="1.1" xmlns="http://www.w3.org/2000/svg" xmlns:xlink="http://www.w3.org/1999/xlink">
    <!-- Generator: Sketch 54.1 (76490) - https://sketchapp.com -->
    <title>Drag and drop</title>
    <desc>Created with Sketch.</desc>
    <g id="Pages" stroke="none" stroke-width="1" fill="none" fill-rule="evenodd">
        <g id="Post-Opportunity-Copy" transform="translate(-1230.000000, -829.000000)">
            <g id="Dragbox" transform="translate(938.000000, 767.000000)">
                <g id="Drag-and-drop" transform="translate(292.000000, 62.000000)">
                    <g id="np_drag-and-drop_222537_000000">
                        <path d="M33.166176,37 L17.832352,37 C15.7206576,37 14,35.2793056 14,33.166176 L14,27.032352 C14,26.6097408 14.3435611,26.266176 14.766176,26.266176 C15.1887872,26.266176 15.532352,26.6097371 15.532352,27.032352 L15.532352,33.166176 C15.532352,34.4340464 16.5644816,35.466176 17.832352,35.466176 L33.166176,35.466176 C34.4340464,35.466176 35.466176,34.4340464 35.466176,33.166176 L35.466176,17.832352 C35.466176,16.5644816 34.4340464,15.532352 33.166176,15.532352 L25.5,15.532352 C25.0773888,15.5337898 24.733824,15.1902261 24.733824,14.766176 C24.733824,14.3435648 25.0773851,14 25.5,14 L33.166176,14 C35.2793056,14 37,15.7206944 37,17.833824 L37,33.167648 C37,35.2793424 35.2793056,37 33.166176,37 L33.166176,37 Z" id="Shape" fill="#788995" fill-rule="nonzero"></path>
                        <path d="M11.3333346,23 L10.6666693,23 C10.2989467,23 10.0000039,22.5520094 10.0000039,22.0009357 C9.99875287,21.4479954 10.2976947,21 10.6666693,21 L11.3333346,21 C11.7010573,21 12,21.4479906 12,22.0009357 C12,22.5520046 11.7010605,23 11.3333346,23 Z" id="Shape" fill="#000000" fill-rule="nonzero"></path>
                        <path d="M7.30245202,23 L5.82021505,23 C5.41597821,23 5.08735097,22.656441 5.08735097,22.2338287 C5.08735097,21.81122 5.41597469,21.4676573 5.82021505,21.4676573 L7.30245202,21.4676573 C7.70668886,21.4676573 8.0353161,21.8112163 8.0353161,22.2338287 C8.0353161,22.6564373 7.70669238,23 7.30245202,23 Z M2.86549152,22.8835618 C2.79949151,22.8835618 2.73211519,22.8749367 2.66474238,22.854812 C2.07074231,22.6780001 1.52348785,22.3445095 1.0834878,21.8859475 C0.796111449,21.5883882 0.794738649,21.1025171 1.08073763,20.8020837 C1.36673766,20.5030855 1.83148331,20.5002114 2.11748334,20.7992085 C2.38148337,21.073768 2.71011061,21.2750296 3.06485625,21.3799458 C3.45536509,21.4949451 3.68085632,21.9189889 3.5694835,22.3272456 C3.47873437,22.6636177 3.18446586,22.8835478 2.86548342,22.8835478 L2.86549152,22.8835618 Z M0.732864082,19.2538895 C0.328627237,19.2538895 0,18.9103305 0,18.4877182 L0,16.9381164 C0,16.5155077 0.328623717,16.171945 0.732864082,16.171945 C1.13710093,16.171945 1.46572816,16.5155041 1.46572816,16.9381164 L1.46572816,18.4877182 C1.46710343,18.9103268 1.13847725,19.2538895 0.732864082,19.2538895 Z M0.732864082,14.6035018 C0.328627237,14.6035018 0,14.2599427 0,13.8373304 L0,12.2862935 C0,11.8636848 0.328623717,11.5201221 0.732864082,11.5201221 C1.13847373,11.5201221 1.46710096,11.8636811 1.46710096,12.2862935 L1.46710096,13.8358952 C1.46710096,14.2599391 1.13847725,14.6035018 0.732864082,14.6035018 Z M0.732864082,9.95458604 C0.328627237,9.95458604 0,9.611027 0,9.18841469 L0,7.63737772 C0,7.21476909 0.328623717,6.87120638 0.732864082,6.87120638 C1.13847373,6.87120638 1.46710096,7.21476541 1.46710096,7.63737772 L1.46710096,9.1869795 C1.46710096,9.61102332 1.13847725,9.95458604 0.732864082,9.95458604 L0.732864082,9.95458604 Z M21.2671384,8.37333645 C20.8629015,8.37333645 20.5342743,8.02977742 20.5342743,7.60716511 L20.532899,6.05612814 C20.532899,5.63351951 20.8615228,5.2899568 21.2657631,5.2899568 C21.6713728,5.2899568 22,5.63208064 22,6.05612814 L22,7.60572992 C22,8.02977374 21.6713763,8.37333645 21.2671359,8.37333645 L21.2671384,8.37333645 Z M0.732864082,5.30430871 C0.328627237,5.30430871 1.77635684e-15,4.96074968 1.77635684e-15,4.53813737 L1.77635684e-15,3.83375285 C1.77635684e-15,3.48156795 0.0467491252,3.12936833 0.137498255,2.79158319 C0.247498268,2.38189128 0.655888713,2.14184634 1.04224396,2.2625864 C1.4327528,2.3775857 1.65824403,2.80019433 1.54824401,3.20845105 C1.49462033,3.40970167 1.46711856,3.61957815 1.46711856,3.83375285 L1.46711856,4.53813737 C1.46711856,4.960746 1.13849485,5.30430871 0.732881682,5.30430871 L0.732864082,5.30430871 Z M21.1474584,3.73457745 C20.8298347,3.73457745 20.5369495,3.51751765 20.4434583,3.18258081 C20.3403328,2.81314786 20.1437091,2.47245553 19.879695,2.19645721 C19.5923187,1.89889789 19.5895696,1.41302677 19.8741954,1.1125934 C20.1588191,0.810721151 20.6235683,0.80928228 20.9109411,1.10684306 C21.3523139,1.56396988 21.6781956,2.13322562 21.85145,2.75278666 C21.9655755,3.15960818 21.74145,3.583652 21.3523139,3.70295688 C21.2835648,3.72595674 21.2148157,3.73458187 21.1474394,3.73458187 L21.1474584,3.73457745 Z M2.84204832,1.65597889 C2.5257974,1.65597889 2.23153945,1.44035428 2.13804824,1.10541744 C2.02529911,0.698595913 2.24804825,0.273116899 2.6371843,0.153812025 C2.96993345,0.0517515254 3.31643877,0 3.66706601,0 L4.31330288,0 C4.71753973,0 5.04616697,0.343559031 5.04616697,0.766171342 C5.04616697,1.19021516 4.72029237,1.53377787 4.31330288,1.53377787 L3.66706601,1.53377787 C3.45531687,1.53377787 3.24906596,1.5639651 3.04969314,1.62577732 C2.97956769,1.64733941 2.91081857,1.65596454 2.84206944,1.65596454 L2.84204832,1.65597889 Z M17.65773,1.53379259 L16.175493,1.53379259 C15.7712562,1.53379259 15.4426289,1.19023356 15.4426289,0.767621253 C15.4426289,0.345012622 15.7712526,0.00144991118 16.175493,0.00144991118 L17.65773,0.00144991118 C18.0619668,0.00144991118 18.3905941,0.345008942 18.3905941,0.767621253 C18.3905941,1.19022988 18.0619703,1.53379259 17.65773,1.53379259 Z M13.2080975,1.53379259 L11.7272333,1.53379259 C11.3229965,1.53379259 10.9943692,1.19023356 10.9943692,0.767621253 C10.9943692,0.343577431 11.3216201,1.47199105e-05 11.7272333,1.47199105e-05 L13.2094703,1.47199105e-05 C13.6137071,1.47199105e-05 13.9423344,0.343573751 13.9423344,0.766186062 C13.9437093,1.19022988 13.6150834,1.53379259 13.2080975,1.53379259 Z M8.76128098,1.53379259 L7.27904402,1.53379259 C6.87480717,1.53379259 6.54617993,1.19023356 6.54617993,0.767621253 C6.54617993,0.343577431 6.87343085,1.47199105e-05 7.27904402,1.47199105e-05 L8.76128098,1.47199105e-05 C9.16551783,1.47199105e-05 9.49414506,0.343573751 9.49414506,0.766186062 C9.49551998,1.19022988 9.16689415,1.53379259 8.76128098,1.53379259 Z" id="Shape" fill="#788995" fill-rule="nonzero"></path>
                        <path d="M22.0009357,12 C21.4479954,12 21,11.7010605 21,11.3333346 L21,10.6666693 C21,10.2989467 21.4479906,10.0000039 21.9990643,10.0000039 C22.5520046,9.99875287 23,10.2976947 23,10.6666693 L23,11.3333346 C23,11.7010573 22.5520094,12 22.0009357,12 Z" id="Shape" fill="#000000" fill-rule="nonzero"></path>
                        <path d="M19.0041552,27 L15.9958844,27 C13.9738673,27 12.3273647,25.3136329 12.3273647,23.2426595 L12.3273647,20.5475666 L11.6698623,19.874145 C11.2365628,19.4317613 11,18.8414715 11,18.2145388 C11,17.5876061 11.2379643,16.9987228 11.6698623,16.5549325 C12.0274884,16.1886477 12.4841694,15.9590165 12.9779653,15.8885438 C12.9339487,15.2348502 13.1554085,14.5656483 13.6423343,14.0669297 C14.1512719,13.54567 14.8816658,13.3019369 15.5818115,13.4033902 C15.6657177,12.9581933 15.8734197,12.5327245 16.210439,12.1889808 C16.8266714,11.5578284 17.7826416,11.3465186 18.5832156,11.6310782 C18.6905069,11.2859171 18.8775775,10.9590631 19.1458182,10.6857561 C20.0385453,9.77141463 21.4924666,9.77141463 22.3837852,10.6857561 L24.6575068,13.0145282 C26.1678397,14.5656483 27,16.6239986 27,18.8103106 C27,23.3257553 23.4124708,26.9997836 19.00412,26.9997836 L19.0041552,27 Z M13.7950543,22.0506831 L13.7950543,23.2425513 C13.7950543,24.4851281 14.7826812,25.4966671 15.9958844,25.4966671 L19.0041552,25.4966671 C22.6054176,25.4966671 25.5337541,22.4972866 25.5337541,18.8089762 C25.5337541,17.024005 24.8542434,15.3432642 23.6217785,14.0811036 L21.3480569,11.7523316 C21.0261864,11.422668 20.5062482,11.422668 20.1843635,11.7523316 C20.0275553,11.9115298 19.9408954,12.122836 19.9408954,12.3482476 C19.9408954,12.5736592 20.0261784,12.784969 20.1816099,12.9427571 C20.3260407,13.0906848 20.3975659,13.2822847 20.3975659,13.4753055 C20.3975659,13.6683263 20.3260407,13.8599117 20.1829832,14.0078539 C19.8968753,14.3008889 19.4319543,14.3008889 19.1458464,14.0078539 L18.4127058,13.2569628 C18.1018395,12.9385699 17.5598753,12.9385699 17.2490125,13.2569628 C16.927142,13.5866264 16.927142,14.1191531 17.2490125,14.448831 L17.982153,15.1997221 C18.125207,15.3448294 18.1967357,15.5364293 18.1967357,15.7294573 C18.1967357,15.9224854 18.1252105,16.1140636 17.982153,16.2620057 C17.6960451,16.5550407 17.2311241,16.5550407 16.9450162,16.2620057 L15.8446011,15.1349478 C15.5337348,14.8165549 14.9917707,14.8165549 14.6809078,15.1349478 C14.3590373,15.4646113 14.3590373,15.9971381 14.6809078,16.326816 L16.5144634,18.2047649 C16.6575174,18.3498723 16.7290461,18.5428823 16.7290461,18.7345002 C16.7290461,18.9275102 16.6575209,19.1191064 16.5144634,19.2670485 C16.2283555,19.5600836 15.7634345,19.5600836 15.4773266,19.2670485 L13.8707206,17.621544 C13.5598542,17.3031511 13.0178901,17.3031511 12.7070273,17.621544 C12.5515923,17.7807423 12.4663128,17.9920485 12.4663128,18.2160535 C12.4663128,18.4400549 12.5515958,18.6527749 12.7070273,18.8105631 L16.5142873,22.710003 C16.6573413,22.8579307 16.72887,23.0509371 16.72887,23.2425513 C16.72887,23.4355614 16.6573448,23.6271576 16.5142873,23.7750997 C16.2281794,24.0681348 15.7632585,24.0681348 15.4771505,23.7750997 L13.7950543,22.0506831 Z" id="Shape" fill="#007598" fill-rule="nonzero"></path>
                    </g>
                </g>
            </g>
        </g>
    </g>
</svg>