<svg xmlns="http://www.w3.org/2000/svg" xmlns:xlink="http://www.w3.org/1999/xlink" width="14" height="14" viewBox="0 0 14 14">
  <defs>
    <clipPath id="clip-path">
      <path id="Path_3723" data-name="Path 3723" d="M206-245a7,7,0,0,0,7,7,7,7,0,0,0,7-7,7,7,0,0,0-7-7A7,7,0,0,0,206-245Zm11.575,3.875-8.45-8.45a6,6,0,0,1,8.081.369A6,6,0,0,1,217.575-241.125Zm-8.455.705a6,6,0,0,1-.7-8.445l8.445,8.445a6,6,0,0,1-7.745,0Z" fill="#e23636" clip-rule="evenodd"/>
    </clipPath>
    <clipPath id="clip-path-2">
      <path id="Path_3722" data-name="Path 3722" d="M205-237H317v-16H205Z" fill="#e23636"/>
    </clipPath>
  </defs>
  <g id="not-found" transform="translate(-206 252)" clip-path="url(#clip-path)">
    <g id="Group_3620" data-name="Group 3620" clip-path="url(#clip-path-2)">
      <path id="Path_3721" data-name="Path 3721" d="M201-257h24v24H201Z" fill="#e23636"/>
    </g>
  </g>
</svg>
